<?xml version="1.0" standalone="no"?>
  <!DOCTYPE svg PUBLIC "-//W3C//DTD SVG 1.1//EN" "http://www.w3.org/Graphics/SVG/1.1/DTD/svg11.dtd" >
  <svg>
  <metadata>
  Created by font-carrier
  </metadata>
  <defs>
  <font id="SnowCapCyr" horiz-adv-x="1000" vert-adv-y="1000" >
    <font-face
      
      font-family="SnowCapCyr"
      
      font-weight="400"
      
      font-stretch="normal"
      
      units-per-em="1000"
      
      ascent="986"
      
      descent="-236"
      
    />
      <missing-glyph />

      

      
      <glyph glyph-name="uni21" unicode="&#x21;" d="M125 144Q148 144 152 117Q178 112 178 100Q178 88 163 82Q164 63 164-4L47-5Q45 57 45 59L45 81Q42 93 42 100Q42 127 66 127Q80 127 93 118Q93 144 125 144M36 678L35 672Q35 636 50 636Q62 636 93 679Q101 637 109 637Q124 637 132 669Q142 632 150 632Q157 632 164 651Q174 671 174 697Q174 735 139 735Q130 735 112 730Q117 748 117 753Q117 774 88 774Q47 774 47 742L47 730Q48 730 48 729Q22 723 22 707Q22 696 36 685L36 678M34 747Q34 762 49 774Q66 786 88 786Q128 786 128 755Q128 747 124 740Q132 742 138 743Q142 744 145 744Q184 744 184 689Q184 658 163 632Q155 362 155 254L155 239Q155 229 156 219L156 187Q111 190 71 190L44 190Q43 304 41 441Q40 469 40 542L40 565L39 587L39 628Q24 636 24 669L24 681Q11 694 11 708Q11 725 35 738Q34 740 34 747M100 103Q84 119 67 119Q48 119 48 99Q48 82 60 65Q70 49 79 49Q81 49 97 79Q100 64 106 53Q112 44 118 44Q124 44 127 88Q141 59 150 59Q157 59 157 80L157 87Q170 96 170 102Q170 107 142 111Q140 137 125 137Q99 137 99 117L99 116L100 113L100 103Z"  horiz-adv-x="199" vert-adv-y="1000"  />

      
      <glyph glyph-name="uni22" unicode="&#x22;" d="M190 766Q190 780 204 791Q219 803 239 803Q259 803 259 779Q267 782 273 782Q292 782 292 760Q292 759 290 749L294 749L291 522L271 522Q227 522 188 518Q193 576 193 625Q193 668 189 748L199 749Q190 757 190 766M209 739L208 734Q208 725 213 725Q219 725 225 732Q230 739 232 750Q238 732 245 732Q256 732 256 749Q259 732 268 732Q281 732 281 759Q281 771 270 771L262 771L257 770L252 769L252 776Q252 791 236 791Q223 791 212 782Q202 773 202 762Q202 761 204 755Q206 752 209 750L209 739M34 746Q34 785 58 785L62 785L65 784Q77 805 94 805Q108 805 113 785Q119 791 127 791Q144 791 144 774Q144 765 134 758Q135 759 140 759Q149 759 149 745Q149 737 141 723L139 522L40 525Q44 581 44 649Q44 697 41 731Q34 734 34 746M93 795Q82 795 73 771Q69 774 64 774Q45 774 45 748Q45 735 55 735Q65 735 69 747Q91 716 104 716Q112 716 112 736L112 742Q121 730 130 730Q139 730 139 743Q139 752 122 755Q134 761 134 772Q134 781 125 781Q119 781 108 773Q101 795 93 795Z"  horiz-adv-x="331" vert-adv-y="1000"  />

      
      <glyph glyph-name="uni23" unicode="&#x23;" d="M443 719L371 517L513 517L585 719L681 719L609 517L747 517L716 430L579 430L530 290L673 290L640 203L498 203L426 0L329 0L401 203L259 203L187 0L91 0L162 203L22 203L56 290L195 290L244 430L98 430L129 517L274 517L346 719L443 719M290 288L435 288L484 430L339 430L290 288Z"  horiz-adv-x="769" vert-adv-y="1000"  />

      
      <glyph glyph-name="uni24" unicode="&#x24;" d="M329 595Q329 569 322 540Q291 549 271 549Q207 549 207 497Q207 475 272 375Q326 291 326 232Q326 142 244 84L245 66L245 47Q245 6 239-35L227-35Q197-35 162-41Q163-34 163-11Q163 22 157 53Q128 46 95 46L80 47L66 48Q70 63 70 86Q70 131 47 188L70 183Q82 233 104 233Q113 233 122 223Q130 240 138 240Q152 240 154 217Q165 241 165 260Q165 298 134 350L121 373L108 395Q91 424 85 437Q62 483 62 520Q62 565 101 616Q89 611 79 611Q55 611 55 630Q55 655 91 655Q88 663 88 669Q88 691 117 694L117 699L116 704Q116 744 148 744Q170 744 201 714L198 791L281 797L269 722L273 722Q319 722 319 687L319 682L318 677Q348 661 348 631Q348 618 341 610Q338 606 335 604Q331 602 330 602Q329 602 329 603L329 595M105 223Q97 223 86 199Q73 174 73 152Q73 148 79 148L82 148L86 149Q87 132 95 121Q99 111 107 111Q110 111 138 159Q147 143 155 143Q167 143 167 169Q167 186 150 192Q147 228 138 228Q136 228 120 200Q117 223 105 223M68 633Q68 621 82 621Q94 621 107 628Q116 553 134 553Q140 553 145 588Q153 584 163 584Q181 584 184 611Q195 607 206 607Q232 607 239 653Q253 624 272 624Q284 624 291 636Q301 611 317 611Q337 611 337 633Q337 661 304 673Q306 683 306 685Q306 711 277 711Q275 711 271 710L267 710L262 709Q249 719 236 719Q216 719 204 697Q167 733 146 733Q126 733 126 697Q126 685 127 681Q120 684 113 684Q96 684 96 664L98 648Q68 641 68 633Z"  horiz-adv-x="382" vert-adv-y="1000"  />

      
      <glyph glyph-name="uni25" unicode="&#x25;" d="M399 768Q408 768 415 758Q422 747 422 730Q422 721 421 718L437 712Q308 400 226-19L154-47Q202 261 327 681Q304 704 304 723Q304 742 314 755Q323 769 333 769Q353 769 371 733Q380 768 399 768M433 272Q404 272 404 189Q404 106 432 106Q463 106 463 189Q463 272 433 272M348 369Q348 383 373 396Q379 443 430 443Q466 443 466 398Q470 399 482 399Q519 399 519 362Q519 350 516 335Q541 272 541 194Q541 102 510 47Q482-8 436-8Q391-8 361 45Q330 100 330 195Q330 292 363 341Q348 358 348 369M382 349Q376 333 376 317Q376 296 384 296Q398 296 414 339Q416 309 426 309Q433 309 439 322Q444 299 456 299Q466 299 472 332Q478 310 491 310Q507 310 507 360Q507 391 469 391L463 391L456 390Q456 431 434 431Q384 431 384 391L384 389Q358 374 358 365Q358 349 379 349L382 349M34 697Q34 713 62 732Q62 771 110 771Q152 771 152 724Q164 730 171 730Q205 730 205 684Q205 673 202 661Q227 598 227 521Q227 429 196 373Q168 318 122 318Q77 318 47 371Q16 426 16 521Q16 618 49 667Q34 682 34 697M58 664Q58 622 70 622Q81 622 98 663Q106 648 113 639Q119 631 123 631Q131 631 143 670Q159 621 171 621Q178 621 185 639Q194 660 194 687Q194 719 162 719Q152 719 145 715Q139 760 111 760Q70 760 70 732Q70 725 71 722Q44 707 44 693Q47 682 54 682L55 679L56 676L58 671L58 664M119 599Q91 599 91 517Q91 434 119 434Q149 434 149 516Q149 599 119 599M354 743L350 749Q343 761 335 761Q328 761 320 750Q314 740 314 725Q314 707 327 693Q338 678 348 678Q355 678 365 691Q365 659 376 659Q384 659 398 682Q414 707 414 729Q414 740 409 750Q405 759 400 759Q385 759 371 717Q367 725 359 735L354 743Z"  horiz-adv-x="559" vert-adv-y="1000"  />

      
      <glyph glyph-name="uni26" unicode="&#x26;" d="M209 516Q186 581 164 581Q143 581 143 553Q143 525 172 472L186 482L242 412Q133 321 133 224Q133 186 149 158Q164 179 179 179Q194 179 206 161Q217 179 230 216Q208 238 190 262L217 291Q208 302 208 313Q208 334 240 346Q239 348 239 355Q239 384 283 384Q326 384 326 344L326 342Q378 339 378 291Q378 279 375 261L401 243Q386 186 350 135L325 146Q283-8 168-8Q103-8 62 48Q21 106 21 201Q21 337 98 426Q50 498 50 578Q50 643 89 685Q79 696 79 705Q79 725 104 737Q111 762 140 762Q177 762 188 733Q209 736 218 736Q251 736 251 698L249 676Q274 645 274 598Q274 578 270 565L209 516M119 646Q134 646 140 670Q157 632 171 632Q184 632 187 664Q209 639 217 639Q239 639 239 701Q239 726 209 726Q202 726 181 723Q178 754 144 754Q116 754 116 731L116 726Q89 722 89 705Q89 700 99 690Q105 646 119 646M245 243Q262 243 264 278Q284 258 285 258Q293 258 312 274Q336 231 341 231Q351 231 358 246Q367 263 367 286Q367 311 355 321Q345 330 314 333L315 338L315 343Q315 372 283 372Q249 372 249 351Q249 346 250 344Q218 326 218 311Q218 298 232 290Q232 243 245 243M202 148Q202 154 194 162Q187 169 177 169Q168 169 161 162Q153 154 153 148Q153 135 161 135Q166 135 167 136L167 129Q167 111 177 111Q193 111 195 137Q202 143 202 148Z"  horiz-adv-x="398" vert-adv-y="1000"  />

      
      <glyph glyph-name="uni2019" unicode="&#x2019;" d="M98 512Q57 520 22 538Q47 593 60 656Q48 673 48 708Q48 747 76 747Q85 747 91 745Q93 775 119 775Q144 775 161 761Q178 746 178 726Q178 716 166 711Q153 606 98 512M140 683Q147 683 150 691Q151 692 153 701L155 707L157 715Q165 720 165 727Q165 740 151 752Q136 764 118 764Q100 764 97 735L90 736L83 736Q59 736 59 713Q59 693 64 675Q69 661 73 661Q78 661 95 684Q96 680 101 677Q105 675 106 675Q116 675 126 694Q132 683 140 683Z"  horiz-adv-x="190" vert-adv-y="1000"  />

      
      <glyph glyph-name="uni28" unicode="&#x28;" d="M208 706Q133 526 133 316Q133 93 229-20Q201-83 133-106Q24 36 24 266Q24 490 106 676Q86 705 86 728Q86 756 118 756Q119 756 123 755L126 755L131 754Q136 775 155 775Q173 775 187 764Q200 754 200 737Q200 729 197 721L208 706M161 693Q171 693 181 706Q192 720 192 733Q192 764 155 764Q140 764 137 746L128 747L119 747Q111 747 103 741Q96 734 96 727Q96 710 106 696Q117 682 128 682Q139 682 149 706Q153 693 161 693Z"  horiz-adv-x="227" vert-adv-y="1000"  />

      
      <glyph glyph-name="uni29" unicode="&#x29;" d="M57 735L52 735Q26 735 16 719Q6 705 6 666Q6 655 10 655Q36 655 42 687Q44 666 52 666Q63 666 78 700Q82 681 94 681Q104 681 104 705L104 709Q118 720 118 732Q118 744 106 754Q95 764 79 764Q63 764 63 734L57 735M202 393Q202 118 76-106L41-81L18-49Q93 131 93 341Q93 545 19 649Q13 646 8 646Q-4 646-4 669Q-4 743 45 743L54 743L54 747L53 750Q53 774 80 774Q99 774 113 763Q126 753 126 735Q126 732 125 728Q124 724 122 718Q202 588 202 393Z"  horiz-adv-x="227" vert-adv-y="1000"  />

      
      <glyph glyph-name="uni2a" unicode="&#x2a;" d="M34 652Q34 635 60 635L66 635Q69 598 82 598Q97 598 106 620Q118 593 133 593Q144 593 165 639Q177 619 190 619Q202 619 211 634Q223 613 240 613Q253 613 262 623Q272 633 272 644Q272 661 246 661L234 661Q233 691 213 691Q200 691 189 674Q171 695 162 695Q151 695 133 675Q106 699 100 699Q81 699 62 665Q34 661 34 652M24 651Q24 671 53 671Q77 710 102 710Q119 710 133 690L153 734L166 730L178 699L189 688Q204 703 218 703Q244 703 244 670L249 671L252 671Q256 672 257 672Q282 672 282 641L282 638L300 640L303 628L219 568L292 507L288 494L200 503L166 410L153 406L108 504L22 494L19 506L89 570L5 633L7 643L28 641Q26 644 25 648L24 650L24 651Z"  horiz-adv-x="310" vert-adv-y="1000"  />

      
      <glyph glyph-name="uni2b" unicode="&#x2b;" d="M374 550L374 347L570 347L570 250L374 250L374 46L275 46L275 250L78 250L78 347L275 347L275 550L374 550Z"  horiz-adv-x="648" vert-adv-y="1000"  />

      
      <glyph glyph-name="uni2c" unicode="&#x2c;" d="M125 88Q139 88 141 114Q147 123 147 132Q147 142 133 153Q120 163 101 163Q77 163 76 126L71 127L66 127Q63 128 61 128Q37 128 37 91Q37 48 50 48Q62 48 76 77Q79 63 85 63Q90 63 98 71Q105 78 110 94Q119 88 125 88M151 111Q151-11 42-119Q8-95-25-61Q17-5 38 45Q28 59 28 89Q28 135 55 135L61 135L68 134L68 140Q68 173 100 173Q125 173 141 161Q158 147 158 133Q158 121 151 114L151 111Z"  horiz-adv-x="190" vert-adv-y="1000"  />

      
      <glyph glyph-name="uni2d" unicode="&#x2d;" d="M28 317Q28 342 51 362Q74 384 110 384Q146 384 153 350Q173 354 181 354Q210 354 216 330Q260 325 260 293Q260 278 247 265Q246 259 246 238Q246 234 248 194Q231 193 192 193L81 193Q39 193 20 194Q17 212 17 233Q17 262 24 301L31 300Q28 308 28 317M154 343L144 342Q137 373 110 373Q78 373 58 355Q38 337 38 312Q38 293 55 270Q70 249 82 249Q91 249 119 286Q131 251 152 251Q165 251 188 267Q203 224 213 224Q228 224 234 265Q249 279 249 292Q249 318 205 324Q201 343 164 343L154 343Z"  horiz-adv-x="264" vert-adv-y="1000"  />

      
      <glyph glyph-name="uni2e" unicode="&#x2e;" d="M19 125Q19 139 41 146L41 148Q41 186 83 186Q115 186 115 163Q115 156 111 149L118 150L125 150Q172 150 172 114Q172 97 157 85Q152 29 147-3L35 5L36 19L37 35L37 63Q37 94 36 102Q19 113 19 125M47 85Q47 67 56 67Q73 67 83 94Q84 69 102 69Q108 69 118 79Q127 54 134 54Q141 54 146 83Q158 94 158 110Q158 138 126 138Q117 138 102 135Q106 142 106 152Q106 172 85 172Q52 172 52 146L52 142L53 137Q31 131 31 120Q31 108 48 105Q47 102 47 94L47 85Z"  horiz-adv-x="190" vert-adv-y="1000"  />

      
      <glyph glyph-name="uni2f" unicode="&#x2f;" d="M275 693Q275 683 282 683Q292 683 292 709Q303 712 303 719Q303 739 270 739Q256 739 249 734Q243 730 237 711L231 711Q206 711 206 687Q206 670 222 670Q236 670 245 685Q253 662 263 662Q270 662 275 697L275 693M-24-75Q-13-38 4 16Q11 36 20 65L28 91L37 117L68 211L98 304Q173 531 212 663Q197 666 197 687Q197 719 223 719L227 719L231 718Q237 749 270 749Q313 749 313 720Q313 710 302 708Q205 380 44-93L-24-75Z"  horiz-adv-x="278" vert-adv-y="1000"  />

      
      <glyph glyph-name="uni30" unicode="&#x30;" d="M239 366Q239 522 194 522Q143 522 143 339Q143 240 154 201L163 196Q169 219 185 219Q206 219 218 195Q239 285 239 366M206 779Q156 779 122 751Q88 723 83 678Q46 675 46 618Q46 598 62 598Q94 598 124 673Q139 641 161 641Q189 641 230 667Q237 639 256 639Q264 639 276 644Q285 622 299 622Q307 622 314 631Q322 641 322 652Q322 700 267 719Q260 779 206 779M61 589Q37 591 37 620Q37 678 76 687Q78 728 116 759Q154 789 203 789Q272 789 276 726Q332 700 332 658Q332 639 315 619Q360 535 360 353Q360 187 309 89Q260-4 183-4Q109-4 65 85Q21 178 21 344Q21 437 44 543L61 589M151 191Q139 191 139 180Q139 170 152 166Q132 161 132 151Q132 136 142 136Q150 136 162 151Q163 129 174 129Q189 129 216 157Q221 148 228 148Q237 148 237 163Q237 187 224 187Q216 187 212 183Q196 208 189 208Q179 208 166 186Q154 191 151 191Z"  horiz-adv-x="382" vert-adv-y="1000"  />

      
      <glyph glyph-name="uni31" unicode="&#x31;" d="M8 576Q-9 576-9 594Q-9 614 16 630Q13 641 13 645Q13 667 34 667L37 667L40 666Q30 679 30 691Q30 721 61 721Q73 721 82 717Q85 750 108 750Q115 750 122 747Q132 763 143 763Q158 763 174 747Q182 752 188 752Q204 752 205 725L213 726Q206 614 206 433Q206 255 215 3L73-7Q89 106 89 357Q89 441 84 544L8 542L20 582Q13 576 8 576M1 594Q1 588 8 588Q26 588 33 613Q41 602 48 602Q71 602 71 633L71 640L70 644L69 648Q80 637 92 637Q116 637 116 672L116 678Q137 619 157 619Q165 619 165 641L163 661L162 668L162 676L161 686L160 695Q169 689 177 689Q197 689 197 709Q197 737 177 737L174 737L170 736Q157 751 142 751Q132 751 129 733Q118 737 113 737Q94 737 94 712L95 708L95 703Q77 708 61 708Q40 708 40 697Q40 683 54 657Q51 658 42 658Q23 658 23 645Q23 635 30 628Q1 604 1 594Z"  horiz-adv-x="265" vert-adv-y="1000"  />

      
      <glyph glyph-name="uni32" unicode="&#x32;" d="M195 127Q188 134 188 143Q188 154 208 163Q208 194 240 194Q279 194 280 164L286 165L292 165Q324 165 325 131L340 134L326 109Q325 54 310 54Q306 54 301 62L297 51L293 38L285 11Q234-3 159-3Q92-3 41 15Q34 56 17 97Q201 299 201 461Q201 542 164 542Q126 542 126 477L126 472Q74 466 27 449L27 465Q27 551 57 636L55 636L53 635Q38 635 38 678Q38 709 69 710L69 715L68 720Q68 760 100 760Q123 760 151 730Q156 763 183 763Q202 763 220 738Q244 746 253 746Q277 746 293 730Q310 713 310 695Q310 680 294 664Q322 574 322 491Q322 303 159 137L195 127M65 700Q47 700 47 675Q47 647 64 647L66 647L66 640L65 634Q65 597 90 597Q109 597 128 648Q149 640 159 640Q187 640 193 687Q199 596 222 596Q252 596 252 651L252 656Q297 664 297 695Q297 711 283 722Q270 734 249 734Q234 734 213 725Q200 752 182 752Q161 752 156 713Q119 749 98 749Q77 749 77 713L77 706L78 698L75 699L71 700L65 700M210 114Q210 88 219 88Q228 88 242 114Q246 89 261 89Q273 89 289 99Q298 67 308 67Q314 67 314 107Q314 135 310 143Q305 154 289 154Q285 154 282 153L272 152Q270 181 245 181Q228 181 224 177Q219 172 219 158Q199 147 199 141Q199 133 210 124L210 114Z"  horiz-adv-x="382" vert-adv-y="1000"  />

      
      <glyph glyph-name="uni33" unicode="&#x33;" d="M331 239Q331 136 281 65Q231-3 162-3Q103-3 59 48Q15 103 12 187L100 241Q102 196 121 150Q137 178 149 178Q160 178 167 162Q172 173 177 173Q188 173 194 153Q212 189 212 229Q212 325 143 325Q131 325 97 317L97 370Q93 367 87 367Q66 367 66 403Q66 412 81 412Q72 421 72 427Q72 434 79 440Q87 446 95 446Q105 446 112 439Q117 462 134 462Q153 462 167 439Q198 470 198 519Q198 544 185 560Q172 575 153 575Q124 575 76 526Q65 570 35 631L50 649L48 667Q48 728 94 732L94 734Q94 751 107 763Q121 775 136 775Q159 775 183 751Q209 772 227 772Q247 772 262 753Q276 733 278 702Q283 705 288 705Q304 705 315 679Q327 652 327 611Q327 584 312 575L312 564Q312 464 234 386Q331 370 331 239M100 434Q88 434 88 423Q88 415 100 410Q81 406 81 394Q81 379 90 379Q99 379 111 395Q113 372 122 372Q137 372 164 400Q173 387 180 387Q188 387 188 404Q188 431 172 431Q165 431 161 427Q146 451 137 451Q128 451 115 429Q103 434 100 434M101 724Q59 717 59 668Q59 650 65 639Q69 629 76 629Q84 629 94 666Q103 651 113 651Q122 651 134 697Q146 675 158 675Q171 675 196 702Q198 660 221 660Q231 660 232 681Q273 583 299 583Q316 583 316 611Q316 693 279 693Q273 693 271 692Q265 760 226 760Q205 760 182 737Q158 764 139 764Q101 764 101 726L101 724M147 169Q140 169 132 155Q123 139 123 120Q123 100 134 100Q156 100 164 132Q169 127 172 127Q185 127 185 144Q185 160 178 160Q171 160 165 150Q156 169 147 169Z"  horiz-adv-x="359" vert-adv-y="1000"  />

      
      <glyph glyph-name="uni34" unicode="&#x34;" d="M190 755Q190 794 235 794Q253 794 266 784Q279 774 279 760Q279 749 271 727Q281 734 291 734Q317 734 317 697Q317 678 310 656Q332 655 332 638Q332 629 324 616L335 616Q303 456 295 314Q311 327 321 327Q334 327 334 305L334 295L349 297L357 264L355 213L289 193L289 171L288 149Q288 79 297 4L192-7Q186 58 186 123Q186 168 187 181Q145 176 116 176Q9 176 9 206Q9 224 14 262Q20 306 32 355Q62 485 121 632L116 632Q94 632 94 667Q94 699 117 731Q140 761 160 761Q177 761 190 751L190 755M134 308Q152 330 169 330Q181 330 193 318L198 382L203 447Q211 531 219 578L216 579Q148 423 134 308M160 747Q146 747 128 721Q109 693 109 667Q109 656 113 649Q116 642 120 642Q127 642 162 673Q165 649 178 649Q185 649 192 653Q190 645 190 637Q190 601 228 601Q231 601 236 602Q241 603 249 605Q247 597 246 592Q245 587 245 584Q245 552 267 552Q281 552 300 585Q322 622 322 634Q322 648 301 648L295 648Q305 669 305 695Q305 722 291 722Q276 722 253 705Q266 744 266 763Q266 781 239 781Q200 781 197 734Q170 747 160 747M194 293Q194 303 187 311Q180 320 170 320Q136 320 136 281Q136 269 142 258Q148 248 154 248Q167 248 179 279Q194 285 194 293M317 269Q320 269 325 277Q329 286 329 300Q329 317 319 317Q308 317 297 305Q286 292 286 277Q286 252 294 252Q304 252 310 278Q312 269 317 269Z"  horiz-adv-x="368" vert-adv-y="1000"  />

      
      <glyph glyph-name="uni35" unicode="&#x35;" d="M247 590L233 592Q227 593 221 593L211 593Q174 593 144 583L140 515Q154 541 191 541Q236 541 236 506Q236 505 235 501L235 498L234 493Q245 496 253 496Q292 496 292 450Q292 430 277 406Q315 360 315 281Q315 150 267 69Q220-8 152-8Q99-8 59 44Q18 99 16 186L95 236L96 228L97 218Q98 210 100 196Q120 219 141 219Q166 219 190 186Q199 219 199 258Q199 354 153 354Q126 354 106 319Q69 341 32 350Q56 490 56 581Q56 610 51 668L46 668Q29 668 29 683Q29 700 59 709Q55 716 55 726Q55 747 82 747L84 747Q83 750 83 760Q83 797 119 797Q141 797 168 768Q173 801 200 801Q218 801 236 776L242 776Q272 776 291 751Q312 726 312 688Q312 644 296 644Q289 644 277 656L263 589L247 590M41 684Q41 677 55 677Q62 677 75 682L75 672L74 662Q74 626 84 626Q101 626 110 662Q122 657 134 657Q149 657 154 683Q165 679 177 679Q203 679 210 725Q220 691 240 691Q250 691 257 698Q283 657 293 657Q301 657 301 689Q301 721 282 743Q264 765 241 765Q240 765 230 763Q217 790 199 790Q177 790 172 751Q135 787 114 787Q94 787 94 752Q94 740 95 736L89 737L82 738Q64 738 64 717L66 701Q41 698 41 684M224 503Q224 529 192 529Q159 529 147 510Q136 491 136 448Q136 423 143 409Q149 395 156 395Q170 395 178 427Q184 407 195 407Q209 407 209 431Q229 396 248 396Q261 396 271 414Q281 431 281 453Q281 486 254 486Q239 486 218 480Q224 492 224 503M162 109Q172 109 180 120Q188 131 188 146Q188 173 172 189Q157 206 137 206Q123 206 109 189Q96 173 96 151Q96 121 110 121Q121 121 139 147Q145 109 162 109Z"  horiz-adv-x="341" vert-adv-y="1000"  />

      
      <glyph glyph-name="uni36" unicode="&#x36;" d="M265 539Q251 550 238 550Q214 550 196 525Q177 498 172 453L192 449Q205 471 225 471Q243 471 247 449Q254 456 263 456Q273 456 280 449Q287 443 287 436Q287 430 278 421Q294 421 294 409Q294 395 284 388Q337 326 337 222Q337 115 294 51Q252-12 186-12Q110-12 69 60Q26 133 26 269Q26 510 140 676Q123 691 123 705Q123 723 150 730L150 735L149 740Q149 781 198 781Q240 781 249 733L254 734L259 734Q300 734 300 652Q300 620 286 620L284 621L281 621L265 539M143 241Q143 212 148 185L151 185Q159 185 165 179Q171 202 187 202Q207 202 221 179Q225 198 225 219Q225 298 173 298Q160 298 149 294Q143 263 143 241M147 674Q147 629 164 629Q177 629 210 656Q208 646 208 645Q208 631 218 631Q233 631 243 641Q256 607 263 607Q266 607 270 614Q272 620 274 632L279 632Q291 632 291 651Q291 724 257 724Q256 724 252 723L249 723L244 722Q235 769 197 769Q160 769 160 742L160 734Q160 726 161 723Q133 716 133 703Q133 692 147 681L147 674M153 174Q134 174 134 138Q134 120 144 120Q156 120 165 135L165 131Q165 112 176 112Q191 112 218 140Q226 128 235 128Q244 128 244 135Q244 167 219 167L214 167Q201 191 191 191Q180 191 168 169Q160 174 153 174M221 461Q214 461 198 436Q190 441 186 441Q170 441 170 404Q170 397 177 397Q187 397 194 409Q220 382 236 382Q247 382 248 404Q260 388 269 388Q278 388 278 403Q278 414 258 419Q271 423 271 433Q271 444 259 444Q256 444 244 438Q230 461 221 461Z"  horiz-adv-x="359" vert-adv-y="1000"  />

      
      <glyph glyph-name="uni37" unicode="&#x37;" d="M22 689Q22 685 27 680Q32 676 41 676Q52 676 62 683Q70 635 92 635Q125 635 141 684Q144 622 173 622Q203 622 221 685Q231 651 246 651Q260 651 276 670Q299 634 333 634Q335 634 337 636Q338 637 338 639Q338 657 317 687Q291 721 268 722Q250 766 227 766L222 766L216 764Q203 791 185 791Q172 791 165 778Q158 768 158 755L158 752Q121 789 101 789Q80 789 80 752L80 745L81 737Q75 739 68 739Q51 739 51 719L53 703Q22 697 22 689M10 684Q10 710 45 710Q42 718 42 724Q42 747 71 750Q70 753 70 760Q70 798 106 798Q125 798 154 769Q158 803 186 803Q204 803 222 778L226 779L230 779Q257 779 275 730L278 730Q304 730 323 700L341 701Q339 678 338 669Q351 650 351 638Q351 624 334 624L329 557Q208 299 205 1Q131-2 70-16Q96 290 216 566L188 566Q84 566 7 555Q22 624 26 669Q10 669 10 684Z"  horiz-adv-x="359" vert-adv-y="1000"  />

      
      <glyph glyph-name="uni38" unicode="&#x38;" d="M352 668Q358 660 362 654Q328 520 261 403Q345 331 345 209Q345 118 296 57Q247-3 176-3Q107-3 63 50Q19 103 19 189Q19 294 97 385Q25 457 25 563Q25 661 90 702Q81 719 81 729Q81 747 119 767Q119 815 190 815Q237 815 237 783Q237 777 235 771Q252 775 262 775Q301 775 317 738Q345 725 345 699Q345 693 341 681L352 668M191 601Q145 601 145 536Q145 522 146 518Q162 531 176 531Q193 531 197 503Q216 539 229 580Q210 601 191 601M138 201Q138 175 155 156Q166 176 182 176Q201 176 213 154Q233 177 233 212Q233 276 186 318Q138 248 138 201M259 765Q242 765 224 758L225 767L225 774Q226 777 226 780L226 783Q226 805 190 805Q126 805 126 758L126 756Q91 739 91 726Q91 713 109 690Q127 669 136 669Q148 669 167 705Q182 647 203 647Q219 647 240 678Q255 634 260 634Q281 634 296 683Q309 678 316 678Q335 678 335 698Q335 718 307 731Q291 765 259 765M128 113Q128 94 138 94Q146 94 158 109Q158 86 171 86Q184 86 198 97Q212 109 212 122Q212 135 201 152Q190 166 183 166Q168 166 161 144Q128 132 128 113M152 477L151 473Q151 452 164 452Q174 452 181 464Q191 477 191 495Q191 522 177 522Q164 522 151 512Q138 502 138 490Q138 479 145 479Q146 479 147 480L149 480L152 481L152 477Z"  horiz-adv-x="373" vert-adv-y="1000"  />

      
      <glyph glyph-name="uni39" unicode="&#x39;" d="M178 446Q203 446 219 413Q218 499 210 534Q203 573 181 573Q162 573 150 545Q136 512 136 465Q136 432 143 400Q150 446 178 446M91 100Q96 115 97 125Q92 120 89 120Q75 120 75 152Q75 180 95 180Q101 180 103 179Q116 204 133 204Q152 204 158 180Q166 187 173 187Q185 187 189 162Q210 186 219 262Q191 226 152 226Q93 226 57 287Q19 352 19 464Q19 563 58 645Q56 667 56 668Q56 709 82 709L86 709L90 708L99 706Q119 760 161 760Q175 760 190 751L190 755Q190 794 235 794Q253 794 266 784Q279 774 279 760Q279 749 271 727Q281 734 291 734Q317 734 317 697Q317 678 310 656Q332 655 332 638Q332 627 317 604Q340 514 340 409Q340 210 288 97Q239-11 161-11Q101-11 76 59Q84 79 91 100M133 195Q118 195 109 168Q102 172 97 172Q83 172 83 152Q83 128 91 128Q94 128 97 131Q103 137 105 141Q132 113 147 113Q156 113 159 136Q166 120 177 120Q189 120 189 134Q189 148 169 150Q181 155 181 163Q181 178 169 178Q163 178 155 170Q146 195 133 195M159 747Q123 747 106 696L101 697L95 698L88 698Q69 698 69 675Q69 651 85 634Q99 616 115 616Q142 616 192 653Q190 645 190 637Q190 601 228 601Q231 601 236 602Q241 603 249 605Q251 583 260 571Q269 558 281 558Q307 558 307 600L307 608Q321 631 321 637Q321 648 299 648L295 648Q305 669 305 695Q305 723 291 723Q272 723 257 697L258 708L259 718Q261 726 262 736Q264 746 265 753Q266 760 266 763Q266 781 239 781Q200 781 197 734Q172 747 159 747M178 341Q178 322 190 322Q209 322 210 355Q244 358 244 379Q244 400 219 400L214 400Q201 434 178 434Q158 434 149 391Q127 378 127 365Q127 358 139 358L144 358L151 359Q158 346 163 346Q173 346 180 362L179 354L179 348Q178 342 178 341Z"  horiz-adv-x="366" vert-adv-y="1000"  />

      
      <glyph glyph-name="uni3a" unicode="&#x3a;" d="M93 475Q86 475 70 450Q66 454 58 454Q47 454 47 440L48 435L49 430Q49 426 46 421Q42 417 42 416Q42 410 49 410Q53 410 57 413L62 418L66 423Q89 388 109 388Q120 388 120 412L120 418Q132 402 141 402Q150 402 150 417Q150 428 130 433Q143 437 143 446Q143 458 131 458Q128 458 116 452Q102 475 93 475M31 415Q39 421 39 429L38 435L37 442Q37 463 57 463L61 463L64 462Q76 485 97 485Q113 485 119 462Q127 469 134 469Q150 469 150 450Q150 442 142 434Q143 435 148 435Q158 435 158 420Q158 409 149 395L147 308L37 312L38 326L39 342L39 369Q39 397 38 404Q31 408 31 415M52 103Q52 90 60 90Q65 90 73 98Q80 107 82 118Q88 98 94 98Q105 98 108 116Q113 98 121 98Q136 98 136 129Q136 142 123 142Q115 142 103 139L103 143Q103 164 84 164Q68 164 57 154Q46 143 46 132Q46 124 53 118L52 113L52 103M46 116Q37 125 37 136Q37 151 52 163Q66 176 87 176Q111 176 111 150Q120 153 127 153Q146 153 146 128L146 124L145 120L144 117L148 117Q154 84 154 64Q154 34 144 3L128 3Q89 3 35-3Q38 26 38 57Q38 62 36 116L46 116Z"  horiz-adv-x="190" vert-adv-y="1000"  />

      
      <glyph glyph-name="uni3b" unicode="&#x3b;" d="M103 76Q108 76 114 86Q120 98 120 112Q120 124 103 132L103 139Q103 159 82 159Q27 159 27 87Q27 63 35 63Q45 63 52 93Q55 77 64 77Q73 77 85 98Q98 76 103 76M145 109Q133-18 34-119Q0-95-33-61Q19 6 33 55L31 54L29 54Q18 54 18 89Q18 128 36 150Q54 172 83 172Q112 172 112 149Q112 142 111 140Q129 130 129 115L129 112L145 109M40 385Q40 399 58 402Q58 428 90 428Q112 428 112 408L112 405L111 402L117 403L122 403Q142 403 142 383L141 379L141 374L140 369L150 369Q156 336 156 317Q156 287 146 256L130 256Q91 256 37 250Q40 279 40 310Q40 314 38 368L49 369Q40 377 40 385M62 394Q50 394 50 384Q50 375 57 368Q61 331 73 331Q79 331 83 338Q89 350 90 360Q104 339 111 339Q117 339 124 352Q132 366 132 381Q132 396 119 396Q118 396 114 395L109 395L104 394Q106 402 106 403Q106 419 88 419Q65 419 65 394L62 394Z"  horiz-adv-x="190" vert-adv-y="1000"  />

      
      <glyph glyph-name="uni3c" unicode="&#x3c;" d="M704 476L268 298L704 120L704 13L129 250L129 347L704 583L704 476Z"  horiz-adv-x="833" vert-adv-y="1000"  />

      
      <glyph glyph-name="uni3d" unicode="&#x3d;" d="M571 452L571 355L78 355L78 452L571 452M571 242L571 145L78 145L78 242L571 242Z"  horiz-adv-x="648" vert-adv-y="1000"  />

      
      <glyph glyph-name="uni3e" unicode="&#x3e;" d="M704 347L704 250L129 13L129 120L566 298L129 476L129 583L704 347Z"  horiz-adv-x="833" vert-adv-y="1000"  />

      
      <glyph glyph-name="uni3f" unicode="&#x3f;" d="M205 192L105 187Q102 234 102 276Q102 315 111 369Q193 382 193 478Q193 575 150 575Q101 575 95 458L9 506Q9 630 62 683Q68 726 94 755Q120 782 149 782Q188 782 194 726Q217 746 231 746Q266 746 266 686L266 676L269 677L272 677Q292 677 292 657Q292 646 285 626Q310 573 310 499Q310 336 206 292Q205 277 205 222L205 192M212 37Q212 17 209-3L96-2Q91 76 91 94L88 94Q74 94 74 122Q74 146 89 146Q99 146 109 137Q117 167 137 167Q159 167 165 129Q185 159 197 159Q204 159 210 149Q217 139 217 122Q217 108 207 98Q212 56 212 37M185 724Q185 770 152 770Q121 770 95 738Q70 706 70 661Q70 643 75 628Q80 616 84 616Q85 616 118 656Q126 636 136 636Q141 636 152 644Q152 603 176 603Q200 603 203 641Q225 592 241 592Q252 592 266 612Q281 635 281 657Q281 667 267 667Q261 667 253 664Q255 688 255 689Q255 735 236 735Q225 735 184 708Q185 712 185 724M91 136Q84 136 84 121Q84 100 94 100L98 100Q101 75 118 75Q125 75 133 83Q140 67 149 67Q161 67 170 86Q179 60 193 60Q199 60 199 77L199 80Q199 83 198 86L198 93L197 103Q207 116 207 123Q207 135 204 142Q200 149 197 149Q192 149 181 138Q169 124 159 106Q153 156 138 156Q127 156 110 126Q100 136 91 136Z"  horiz-adv-x="331" vert-adv-y="1000"  />

      
      <glyph glyph-name="uni40" unicode="&#x40;" d="M509 423Q454 423 413 363Q371 302 371 217Q371 125 448 125Q488 125 521 155Q556 186 568 236L594 342Q582 423 509 423M425 53Q267 53 267 219Q267 337 336 416Q404 494 503 494Q581 494 618 430L644 478L731 478L659 186Q656 174 656 166Q656 132 702 132Q744 132 781 169Q866 248 866 375Q866 491 778 566Q686 643 542 643Q404 643 306 577Q134 462 134 255Q134 105 235 16Q336-74 505-74Q667-74 800 19L840-38Q688-151 507-151Q317-151 195-57Q44 60 44 254Q44 419 145 544Q292 723 545 723Q716 723 826 638Q957 537 957 373Q957 207 833 108Q762 52 675 52Q572 52 570 133Q517 53 425 53Z"  horiz-adv-x="1000" vert-adv-y="1000"  />

      
      <glyph glyph-name="uni41" unicode="&#x41;" d="M223-5L215 49L125 49L116-15L-12 4Q83 435 103 726Q88 738 88 753Q88 774 116 784L116 786Q116 797 127 805Q139 814 156 814Q174 814 187 805Q199 798 199 787L199 785L207 786L214 786Q270 786 270 714Q270 686 249 665Q274 353 338 11L223-5M115 690Q118 679 131 679Q149 679 169 702Q177 673 196 673Q206 673 212 697Q221 676 234 676Q257 676 257 710Q257 776 205 776Q194 776 191 775Q183 801 156 801Q124 801 124 777L124 773Q97 769 97 751Q97 740 112 728Q112 699 115 690M167 462Q158 351 149 256Q142 188 137 147Q143 184 167 184Q181 184 202 147Q180 283 167 462M157 113Q157 93 174 93Q197 93 197 116Q197 137 186 154Q177 169 166 169Q156 169 149 153Q141 135 141 124Q141 116 157 115L157 113Z"  horiz-adv-x="338" vert-adv-y="1000"  />

      
      <glyph glyph-name="uni42" unicode="&#x42;" d="M354 573Q354 496 285 406Q374 328 374 204Q374 109 318 48Q263-12 171-12Q111-12 50 2Q53 101 53 188Q53 410 34 704Q23 721 23 730Q23 748 58 754Q49 765 49 775Q49 796 87 796Q109 796 135 771Q135 817 187 817Q254 817 255 760L260 761L265 761Q290 761 308 738Q327 716 327 687Q327 675 323 666Q354 628 354 573M170 492Q180 494 182 494Q198 494 204 482Q226 516 226 542Q226 565 213 578Q200 593 180 593L176 593L172 592Q172 585 171 557L171 528Q170 509 170 492M38 728Q38 712 60 687Q83 661 96 661Q116 661 141 700Q179 668 199 668Q223 668 237 700Q272 665 294 665Q313 665 313 686Q313 714 298 732Q283 749 258 749L252 749L245 748Q244 803 188 803Q143 803 140 753Q109 784 85 784Q59 784 59 770Q59 760 75 747Q38 744 38 728M222 92Q232 92 232 106Q232 127 219 146Q207 165 200 165Q192 165 189 156Q186 148 180 140Q177 136 171 131Q161 121 161 116Q161 76 189 76Q200 76 206 96Q214 92 222 92M246 196Q246 292 172 333Q173 326 173 312L174 289L174 248Q174 180 170 141L174 148L178 156L180 162L183 168Q189 179 200 179Q216 179 234 139Q246 168 246 196M152 432Q152 411 171 411Q184 411 194 424Q204 437 204 454Q204 482 182 482Q140 482 140 453Q140 443 152 435L152 432Z"  horiz-adv-x="394" vert-adv-y="1000"  />

      
      <glyph glyph-name="uni43" unicode="&#x43;" d="M295 560Q275 574 261 574Q221 574 189 514Q153 448 153 351Q153 273 192 204Q195 230 212 230Q219 230 230 222Q236 250 258 250Q281 250 296 223L303 224Q306 225 307 225Q333 225 333 190Q333 170 314 163Q312 107 312 105Q312 71 316 28Q277-11 214-11Q133-11 79 75Q21 166 21 316Q21 515 115 651Q88 663 88 681Q88 719 116 750Q134 771 159 785Q179 796 192 796Q202 796 212 778Q223 817 259 817Q301 817 301 779Q301 770 300 767Q341 761 341 737Q341 721 322 702Q302 633 295 560M189 782Q180 782 167 775Q153 769 134 753Q100 725 100 691Q100 659 139 659Q173 659 191 725Q205 693 222 693Q247 693 251 730Q252 729 257 725L264 718L269 713L274 709Q284 699 296 699Q308 699 318 711Q328 721 328 731Q328 759 281 759Q284 771 284 781Q284 806 260 806Q233 806 217 754Q204 782 189 782M215 216Q200 216 200 202Q200 191 216 185Q191 181 191 166Q191 148 203 148Q214 148 229 167Q231 138 243 138Q263 138 295 173L299 173L303 172Q321 172 321 191Q321 211 306 211Q299 211 291 206Q272 237 262 237Q249 237 233 209Q220 216 215 216Z"  horiz-adv-x="347" vert-adv-y="1000"  />

      
      <glyph glyph-name="uni44" unicode="&#x44;" d="M45 246Q45 548 29 680Q8 691 8 706Q8 732 35 732Q42 732 44 731L44 738Q44 766 72 766L77 766L83 765Q85 806 124 806Q152 806 180 767Q194 794 212 794Q242 794 258 761Q324 748 324 696Q324 682 317 669Q372 546 372 420Q372 187 291 65Q247-3 169-3Q94-3 41 1Q43 90 44 159Q45 216 45 246M164 430Q164 422 166 352Q167 329 167 306L167 250L166 225Q196 221 215 200Q243 294 243 397Q243 557 188 557Q178 557 167 550Q164 484 164 430M45 724Q19 724 19 708Q19 691 52 686L52 680Q52 639 73 639Q90 639 97 672Q108 664 119 664Q133 664 144 687Q162 659 179 659Q204 659 216 716Q250 670 277 670Q311 670 311 695Q311 714 294 731Q275 749 252 749L247 749Q237 783 215 783Q195 783 180 750Q141 798 121 798Q94 798 91 751Q78 756 72 756Q51 756 51 724L45 724M172 158L171 152Q171 132 185 132Q199 132 203 156Q217 162 217 170Q217 185 202 198Q186 210 164 210Q156 210 156 191Q156 166 172 163L172 158Z"  horiz-adv-x="395" vert-adv-y="1000"  />

      
      <glyph glyph-name="uni45" unicode="&#x45;" d="M268 720Q273 675 273 658Q273 630 262 594Q220 597 168 597Q172 548 172 499L172 475Q177 489 191 492L190 496L190 500Q190 528 229 528Q263 528 263 490Q266 491 276 491Q307 491 307 450Q307 431 296 414Q296 378 292 353Q222 344 175 344L173 295L172 245Q171 202 167 142L171 142Q195 196 231 196Q263 196 263 172Q263 164 259 160Q303 142 303 114Q303 100 291 85L279 9Q234 1 184-4Q150-7 119-7Q93-7 89-6L25 1Q46 134 49 344L9 348Q35 398 49 457Q49 593 33 722Q22 731 22 740Q22 748 32 754Q38 792 73 792Q96 792 121 767Q139 794 165 794Q208 794 211 756Q225 762 235 762Q268 762 268 726L268 720M90 661Q125 661 135 709Q151 693 171 693Q184 693 194 708Q204 674 220 674Q231 674 231 688Q231 697 225 707Q235 705 236 705Q257 705 257 728Q257 750 237 750Q228 750 205 741Q201 781 167 781Q139 781 128 748Q90 780 72 780Q51 780 47 752Q35 746 35 739Q35 730 47 722Q54 661 90 661M187 440L186 433Q186 406 201 406Q208 406 231 423Q236 400 253 400Q263 400 268 411L273 411Q297 411 297 447Q297 467 290 474Q284 480 265 480L251 480L252 485L252 488Q253 492 253 493Q253 517 230 517Q198 517 198 496Q198 487 199 485Q177 482 177 465Q177 456 187 447L187 440M190 106Q190 80 204 80Q216 80 230 100Q239 77 254 77Q268 77 281 88Q292 101 292 114Q292 135 250 157Q254 161 254 167Q254 186 229 186Q213 186 196 168Q179 149 179 135Q179 123 190 115L190 106Z"  horiz-adv-x="322" vert-adv-y="1000"  />

      
      <glyph glyph-name="uni46" unicode="&#x46;" d="M248 645Q248 625 243 597Q209 584 166 581Q167 575 167 524L167 473L166 439L165 407Q178 444 206 444Q223 444 235 435Q246 424 246 413Q246 405 241 398L250 399L258 399Q302 399 302 365Q302 354 290 340Q300 321 300 310Q300 292 279 287L279 276Q279 242 272 207Q213 205 165 201Q159 128 159 34L159-3Q84 8 21 11Q42 262 42 462Q42 593 30 710L39 711Q35 718 35 728Q35 742 44 752Q51 762 62 762Q71 762 79 758L78 768L78 775Q77 778 77 782L77 785Q77 828 112 828Q151 828 169 767L176 768L182 768Q187 769 189 769Q222 769 228 725L237 727Q248 666 248 645M65 748Q47 748 47 724Q47 694 71 694Q76 694 81 702Q87 678 101 678Q117 678 142 705Q148 689 156 689Q163 689 170 695Q185 678 198 678Q218 678 218 706Q218 755 184 755Q175 755 166 752Q138 813 114 813Q86 813 86 777Q86 769 91 741Q73 748 65 748M175 387Q151 380 151 345Q151 312 173 312Q184 312 196 329Q212 298 229 298Q240 298 255 307Q266 296 276 296Q289 296 289 313Q289 325 280 341Q290 354 290 367Q290 391 247 391Q233 391 229 390Q235 399 235 408Q235 433 207 433Q194 433 185 421Q175 408 175 389L175 387Z"  horiz-adv-x="301" vert-adv-y="1000"  />

      
      <glyph glyph-name="uni47" unicode="&#x47;" d="M184 347Q190 409 190 481Q196 490 204 490Q211 490 218 483Q231 526 255 526Q267 526 287 509Q301 518 312 518Q328 518 340 506Q353 494 353 479Q353 469 344 457Q342 384 341 328Q340 283 340 262Q340 123 345 25L303 37Q267-11 211-11Q129-11 76 79Q20 174 20 331Q20 503 98 627L93 626L89 626Q64 626 64 663Q64 704 101 744Q136 782 167 782Q183 782 204 767Q216 805 250 805Q293 805 293 767Q293 766 292 762L292 759L291 754Q337 751 337 723Q337 711 323 702Q297 639 292 564Q275 578 254 578Q206 578 174 516Q141 452 141 341Q141 281 159 192Q178 208 202 208Q223 208 233 187L234 209L234 229Q234 282 227 337L184 347M171 772Q142 772 110 740Q77 706 77 671Q77 636 102 636Q136 636 164 690Q193 670 205 670Q227 670 240 706Q260 685 280 685Q295 685 309 696Q322 706 322 719Q322 744 283 744L280 744L281 750L281 756Q281 796 249 796Q225 796 207 745Q194 772 171 772M208 475Q197 475 197 464Q197 420 253 415Q255 394 266 394Q297 394 300 440Q337 453 337 475Q337 505 306 505Q297 505 287 498Q274 513 261 513Q241 513 224 471Q217 475 208 475M195 97Q222 97 222 132L222 138L221 144Q230 156 230 170Q230 197 199 197Q179 197 162 183Q146 168 146 153Q146 143 163 132Q168 97 195 97Z"  horiz-adv-x="370" vert-adv-y="1000"  />

      
      <glyph glyph-name="uni48" unicode="&#x48;" d="M221 58L223 112Q225 170 226 213L166 210Q161 95 161 34L161 1Q150 2 112 2Q70 2 34-1Q41 177 41 545Q41 644 35 696Q18 713 18 726Q18 743 40 743L43 743Q35 754 35 760Q35 777 54 790Q73 803 105 803Q163 803 163 770L163 765L162 760Q173 752 173 742Q173 735 169 728Q169 508 167 390L175 385Q181 407 198 407Q217 407 229 386L229 423Q229 538 222 691Q199 699 199 717Q199 753 203 753L205 753L207 752Q209 750 212 742Q207 754 207 759Q207 784 232 784Q238 784 249 776Q257 805 283 805Q319 805 349 778Q379 751 379 718Q379 697 356 694Q349 401 349 268Q349 116 353-8Q310-1 219 3L221 58M31 723Q31 711 58 693Q57 691 57 684Q57 660 76 660Q77 660 85 662Q90 655 94 644L97 637L100 631Q106 620 115 620Q133 620 133 657L133 667L132 678L137 678Q156 678 156 695Q156 700 153 704Q151 707 150 709Q149 711 149 712Q149 714 154 722Q159 730 159 736Q159 745 150 749Q141 754 141 756Q141 758 144 762Q147 767 147 769Q147 790 106 790Q50 790 50 758Q50 748 59 734Q31 734 31 723M234 770Q219 770 219 756Q219 745 235 739Q210 733 210 720Q210 700 230 700Q238 700 250 706Q274 643 291 643Q301 643 308 656Q316 672 316 693L316 699L315 706L330 706Q365 706 365 728Q365 748 339 771Q312 795 287 795Q267 795 253 763Q247 766 241 768Q237 770 234 770M164 380Q145 380 145 357Q145 339 163 331Q144 327 144 316Q144 301 154 301Q162 301 174 316Q175 288 197 288Q220 288 227 322Q232 310 243 310Q262 310 262 336Q262 376 236 376Q229 376 225 372Q209 397 201 397Q191 397 178 375Q170 380 164 380Z"  horiz-adv-x="389" vert-adv-y="1000"  />

      
      <glyph glyph-name="uni49" unicode="&#x49;" d="M36 686Q36 650 53 650Q70 650 88 679Q99 649 116 649Q120 649 132 654Q145 638 161 638Q184 638 184 662Q184 703 181 703Q177 703 171 694Q172 697 172 707Q172 736 151 736L144 735L137 734Q123 734 111 749Q116 756 116 763Q116 783 88 783Q47 783 47 754Q47 753 48 749L48 746L49 741Q22 734 22 716Q27 711 27 710Q25 710 25 712Q26 712 27 710Q29 708 30 705L33 699L36 694L36 686M173 229Q173 148 169 5Q90-5 35-5Q41 127 41 307Q41 563 24 690Q11 703 11 718Q11 728 21 737Q28 744 40 749L39 754L39 759Q39 795 87 795Q128 795 128 766Q128 758 123 751Q127 747 134 747L144 748L153 748Q183 748 183 712L182 706L182 700L181 692Q196 677 196 661Q196 632 162 629Q173 385 173 229Z"  horiz-adv-x="211" vert-adv-y="1000"  />

      
      <glyph glyph-name="uni4a" unicode="&#x4a;" d="M156 672Q171 672 186 684Q200 698 200 708Q200 717 171 737L173 744L173 751Q173 778 138 778Q104 778 76 753Q48 728 48 700Q48 695 51 687Q53 675 53 674L51 662Q48 655 48 650Q48 639 59 639Q74 639 81 657Q101 646 112 646Q131 646 143 677Q148 672 156 672M33 648Q33 651 34 654Q35 658 37 661Q40 669 40 673Q40 674 39 677L39 680L38 684Q35 692 35 698Q35 731 67 761Q99 790 136 790Q181 790 181 751L181 746Q211 730 211 710Q211 693 197 677Q191 599 191 534L191 497Q191 471 192 444Q193 417 193 389L193 347Q193 209 182 140Q167 44 118-21Q74-80-15-116L-45-31Q21 16 47 104Q68 178 68 316Q68 432 60 626Q33 631 33 648Z"  horiz-adv-x="236" vert-adv-y="1000"  />

      
      <glyph glyph-name="uni4b" unicode="&#x4b;" d="M383 11Q319-12 271-12Q255-12 250-11Q225 138 162 300Q162 133 149-4Q111 1 69 1Q34 1 25 0Q41 257 41 451Q41 610 29 694Q11 706 11 722Q11 732 21 742Q26 747 41 754L41 760Q41 799 88 799Q124 799 134 750Q145 756 152 756Q170 756 180 735Q191 711 191 678Q191 643 156 641Q162 544 162 450L162 413Q214 557 224 668Q204 674 204 700Q204 759 238 759Q244 759 255 751Q263 784 291 784Q322 784 330 746Q378 743 378 700Q378 669 345 667Q321 497 255 372Q348 199 383 11M36 695Q36 656 57 656Q75 656 75 688Q93 653 112 653Q121 653 134 669Q148 651 159 651Q179 651 179 683Q179 743 144 743Q139 743 128 739Q119 767 113 776Q105 787 89 787Q49 787 49 757Q49 746 50 742Q22 732 22 721Q22 710 36 699L36 695M239 744Q216 744 216 708Q216 674 237 674Q243 674 252 677Q254 659 264 659Q271 659 287 669Q293 649 305 649Q328 649 328 679L328 681L335 681Q364 681 364 704Q364 734 324 735Q319 773 293 773Q272 773 258 738Q248 744 239 744Z"  horiz-adv-x="380" vert-adv-y="1000"  />

      
      <glyph glyph-name="uni4c" unicode="&#x4c;" d="M181 193L181 198Q181 226 220 226Q253 226 253 192Q256 193 263 193Q296 193 296 159Q296 148 292 139Q304 129 304 120Q304 109 294 103L283-5L271-5L258-6Q237-6 169-3L154-2L140-2Q125-2 117-1Q103 0 87 0L29 0Q40 145 40 325Q40 570 30 679Q4 679 4 703Q4 736 34 764Q64 791 100 791Q126 791 134 762Q145 770 151 770Q177 770 177 743Q177 736 169 725Q185 716 185 701Q185 680 161 674Q164 448 164 318Q164 229 162 173Q170 188 182 188L181 193M95 780Q70 780 44 756Q18 732 18 706Q18 691 59 691L68 691Q74 642 94 642Q121 642 133 692Q147 686 156 686Q172 686 172 703Q172 716 148 725Q164 731 164 742Q164 755 149 755Q142 755 130 749Q120 780 95 780M177 129Q177 111 189 111Q198 111 207 125Q222 102 264 102Q293 102 293 118Q293 130 282 139Q286 147 286 158Q286 182 252 182L246 182Q243 215 221 215Q189 215 189 194Q189 187 191 181Q167 178 167 159Q167 148 178 139Q177 136 177 129Z"  horiz-adv-x="296" vert-adv-y="1000"  />

      
      <glyph glyph-name="uni4d" unicode="&#x4d;" d="M170 744Q206 734 206 697Q206 654 177 654L180 637L181 629L183 620L185 608L187 595Q191 574 199 528Q202 510 207 482L212 458L216 434Q241 427 249 403L272 412Q309 635 309 690L309 698Q301 690 293 690Q277 690 277 728Q277 759 300 779Q323 799 358 799Q412 799 412 760L412 755L416 755Q431 755 443 738Q455 722 455 699Q455 688 442 688Q435 688 426 691Q419 603 419 513Q419 270 481 36Q418 19 366-11Q335 107 326 332Q296 211 286 17L200 5Q186 164 142 322Q135 209 135 86Q135 18 136 0Q66 14 6 17Q51 263 51 519Q51 609 44 703Q19 715 19 737Q19 755 45 769Q53 801 101 801Q170 801 170 748L170 744M87 661Q102 661 117 689Q146 666 169 666Q193 666 193 695Q193 725 156 740L156 745Q156 787 101 787Q59 787 53 756Q34 749 34 739Q34 724 56 709Q58 661 87 661M213 423Q201 423 190 409Q178 396 178 379Q178 357 209 330Q204 317 204 307Q204 295 214 286Q224 276 238 276Q260 276 260 304Q260 305 258 323Q288 331 288 368Q288 398 268 398Q257 398 244 388Q236 423 213 423M434 699Q441 699 441 705Q441 741 402 744L403 749L403 754Q403 788 359 788Q327 788 310 772Q291 756 291 729Q291 713 304 713Q310 713 319 716Q319 675 342 675Q351 675 361 680L360 670L360 661Q360 624 375 624Q405 624 408 707Q429 699 434 699Z"  horiz-adv-x="477" vert-adv-y="1000"  />

      
      <glyph glyph-name="uni4e" unicode="&#x4e;" d="M219 488Q219 486 214 478Q222 482 233 482Q242 482 249 479Q251 573 252 645Q253 671 253 689L253 707Q246 686 235 686Q219 686 219 723Q219 751 240 773Q259 795 284 795Q305 795 312 777Q319 787 330 787Q349 787 365 771Q383 755 383 732Q383 707 362 683Q345 450 345 328Q345 197 356 18Q297 16 246-11Q239 74 149 378Q145 313 145 256Q145 47 150-1Q110 3 78 4L43 7L9 9Q42 219 42 428Q42 552 28 703Q5 708 5 727Q5 760 29 760L37 758L37 764Q37 792 60 792Q69 792 83 778Q92 801 114 801Q159 801 159 762Q159 755 156 744Q171 639 201 508Q219 499 219 488M79 646Q98 646 99 698Q108 689 115 689Q135 689 135 710Q135 716 134 718Q143 738 143 751Q143 784 114 784Q93 784 88 764Q74 778 64 778Q44 778 44 750L44 747Q18 742 18 726Q18 716 39 713Q61 646 79 646M205 479Q205 497 196 497Q182 497 171 485Q160 471 160 454Q160 416 199 404Q196 394 196 386Q196 376 210 356Q223 337 233 337Q249 337 259 349Q269 360 269 379Q269 396 266 396Q264 396 262 398Q260 400 256 406Q272 418 272 435Q272 468 232 468Q216 468 203 461L204 466L205 471L205 479M351 703Q369 720 369 734Q369 750 358 761Q346 773 332 773Q322 773 308 762Q303 782 286 782Q265 782 250 766Q235 750 235 723Q235 710 240 710Q247 710 259 731Q261 656 315 656Q351 656 351 694L351 703Z"  horiz-adv-x="389" vert-adv-y="1000"  />

      
      <glyph glyph-name="uni4f" unicode="&#x4f;" d="M239 355Q239 525 194 525Q143 525 143 327Q143 262 153 211Q175 224 187 224Q212 224 222 184Q239 295 239 355M68 686Q68 716 108 741L108 746Q108 782 138 782Q154 782 170 772Q175 795 206 795Q259 795 262 741Q320 722 320 682Q320 668 305 656Q360 542 360 352Q360 183 309 84Q259-11 183-11Q109-11 65 79Q21 173 21 342Q21 553 84 652Q68 664 68 686M119 733Q83 714 83 688Q83 658 106 658Q133 658 167 689Q185 632 228 632Q245 632 260 662Q269 656 277 656Q304 656 304 686Q304 717 250 733Q245 783 203 783Q181 783 176 757Q157 768 143 768Q119 768 119 737L119 733M197 119Q209 119 219 132Q229 145 229 162Q229 173 211 177Q205 210 184 210Q142 210 142 169Q142 152 171 150Q172 119 197 119Z"  horiz-adv-x="382" vert-adv-y="1000"  />

      
      <glyph glyph-name="uni50" unicode="&#x50;" d="M40 750Q40 769 71 790Q101 811 128 811Q145 811 155 801Q167 791 167 778Q167 770 161 759Q193 776 216 776Q271 776 271 723L271 717Q286 724 294 724Q325 724 325 687Q325 668 307 651Q349 585 349 460Q349 341 308 276Q268 212 194 212L174 212L166 213L166 192L165 170L165 136Q164 122 164 109L164 94Q164 37 170-16Q163-16 156-15L145-15Q134-14 132-14Q92-14 32-24Q42 85 42 292Q42 511 34 716L52 719Q40 737 40 750M131 694Q143 694 152 706L152 702Q152 672 174 672Q198 672 216 687Q245 655 274 655Q313 655 313 684Q313 711 293 711Q281 711 263 702Q260 763 218 763Q189 763 148 744Q155 758 155 773Q155 798 127 798Q105 798 80 782Q56 766 56 753Q56 742 65 722Q54 706 54 692Q54 669 75 669Q92 669 107 712Q121 694 131 694M162 388Q179 399 191 399Q204 399 215 389Q224 427 224 483Q224 532 212 562Q200 589 183 589Q175 589 166 583Q162 502 162 388M170 337Q170 319 186 319Q197 319 200 335Q219 341 219 357Q219 386 190 386Q175 386 164 377Q153 368 153 356Q153 345 170 342L170 337Z"  horiz-adv-x="370" vert-adv-y="1000"  />

      
      <glyph glyph-name="uni51" unicode="&#x51;" d="M75 671Q75 628 111 628Q137 628 160 669Q194 614 243 614Q254 614 263 628Q271 601 285 601Q304 601 320 617Q336 632 336 653Q327 665 326 665L321 665Q321 664 318 664L316 664L314 665L310 667L307 668L307 672Q307 749 235 750Q213 786 181 786Q115 786 112 722Q75 710 75 671M63 666Q63 708 103 729Q104 796 182 796Q220 796 241 759L246 759Q316 759 316 687L316 681Q323 685 330 685Q350 685 350 656Q350 636 329 607Q359 517 359 370Q359 175 284 116Q342 115 402 73Q370 18 351-42Q284 4 205 4Q135 4 84-21Q55 16 53 68Q79 88 111 93Q28 135 28 377Q28 543 79 628Q63 644 63 666M203 129Q223 129 223 160Q223 181 210 195Q198 209 181 209Q162 209 148 194Q133 178 133 158Q133 147 142 136Q151 126 161 126Q171 126 177 142Q190 129 203 129M239 355Q239 525 194 525Q143 525 143 327Q143 260 153 209Q166 219 180 219Q212 219 224 190Q239 295 239 355Z"  horiz-adv-x="389" vert-adv-y="1000"  />

      
      <glyph glyph-name="uni52" unicode="&#x52;" d="M376 17Q316-10 243-27L182 294L167 283L167 270Q167 166 145 11L139 12L133 12Q110 12 15-8Q47 184 47 389Q47 519 33 689Q2 692 2 719Q2 739 17 754Q30 770 52 770Q66 770 83 765Q85 806 124 806Q152 806 180 767Q192 794 212 794Q245 794 256 759L258 759Q309 759 309 708Q309 687 297 661Q330 598 330 523Q330 423 283 358Q314 200 376 17M168 470L172 471L179 471Q194 471 208 454Q215 483 215 513Q215 586 179 586Q167 586 162 574Q164 509 165 468L168 470M49 756Q39 756 28 745Q19 735 19 720Q19 700 39 700Q47 700 50 701L48 687Q48 654 78 654Q99 654 120 681Q150 635 175 635Q206 635 222 698Q237 664 263 664Q275 664 286 675Q296 686 296 704Q296 723 284 736Q272 749 254 749L247 749Q237 783 215 783Q195 783 180 750Q141 798 121 798Q94 798 91 751Q59 756 49 756M195 406L199 406Q214 406 214 423Q214 440 202 452Q191 463 177 463Q168 463 160 454Q152 444 152 433Q152 423 161 411L161 407Q161 386 177 386Q191 386 191 407L195 406Z"  horiz-adv-x="371" vert-adv-y="1000"  />

      
      <glyph glyph-name="uni53" unicode="&#x53;" d="M251 602Q212 602 186 582Q161 563 161 532Q161 498 213 425Q293 309 293 220Q293 114 231 52Q169-10 63-10L56-10Q53 66 31 145L40 146L40 148Q40 173 55 186Q69 200 90 200Q118 200 131 176Q152 197 152 234Q152 280 100 357Q28 464 28 526Q28 571 58 620Q33 626 33 664Q33 694 67 704Q66 708 66 720Q66 769 108 769Q123 769 134 752Q137 800 178 800Q217 800 217 762L217 756Q261 756 261 721Q261 707 257 696L287 596Q268 602 251 602M46 660Q46 629 80 629Q106 629 112 687Q129 670 147 670Q175 670 175 698L175 702Q188 691 206 691Q248 691 248 715Q248 744 220 744L204 742L205 749L205 755Q205 789 178 789Q147 789 141 728Q125 755 106 755Q77 755 77 719Q77 710 80 696Q46 695 46 660M91 190Q47 190 47 142Q47 113 74 113Q83 92 102 92Q127 92 130 127Q147 133 147 144Q147 162 126 163Q113 190 91 190Z"  horiz-adv-x="319" vert-adv-y="1000"  />

      
      <glyph glyph-name="uni54" unicode="&#x54;" d="M-6 691Q-6 708 9 727Q26 748 47 750Q46 753 46 761Q46 798 81 798Q100 798 129 769Q135 805 166 805Q188 805 208 779Q237 788 255 788Q278 788 297 771Q315 755 315 734Q315 728 312 717L322 718Q318 653 318 615Q318 588 319 581L294 584L270 587Q245 589 225 590Q213 400 213 156Q213 105 218 10Q206 9 185 8L166 6L146 5L113 2L81 0Q82 270 96 593Q48 595 33 595L6 595L6 622Q6 665 5 676Q-6 684-6 691M49 737Q31 737 19 725Q7 713 7 698Q7 685 27 683L27 678L26 673Q26 632 61 632Q101 632 116 684Q134 669 155 669Q186 669 214 697Q245 645 265 645Q303 645 303 687Q303 700 299 709Q305 721 305 731Q305 751 289 764Q272 778 247 778Q226 778 201 765Q188 792 167 792Q137 792 134 752Q97 789 76 789Q55 789 55 752L55 745L56 737L49 737Z"  horiz-adv-x="324" vert-adv-y="1000"  />

      
      <glyph glyph-name="uni55" unicode="&#x55;" d="M175 266Q189 266 212 246Q214 308 214 313L214 360Q214 370 215 385Q216 423 218 473Q219 528 221 582L223 652L224 722Q213 733 213 747Q213 767 224 781Q235 795 247 795Q257 795 269 786Q287 801 307 801Q331 801 349 786Q367 773 367 754Q367 738 352 729Q335 425 335 227Q335 101 351 5Q300 5 237-1L230 59Q202 7 148 7Q31 7 31 259Q31 410 48 639Q23 651 23 684L24 690L24 697Q12 714 12 728Q12 761 60 770Q78 797 106 797Q155 797 155 762L153 752Q182 738 182 720Q182 706 166 690Q153 394 153 295L153 270Q153 250 154 241Q163 266 175 266M341 739Q354 742 354 753Q354 768 341 778Q327 789 309 789Q288 789 266 775Q260 782 253 782Q243 782 232 771Q222 760 222 746Q222 730 244 727Q239 710 239 705Q239 683 260 683Q272 683 287 702Q303 691 316 691Q341 691 341 731L341 739M154 201Q154 163 176 163Q191 163 203 178Q214 195 214 217Q214 228 203 239Q190 250 179 250Q154 250 154 201M171 718Q171 726 145 741Q146 744 146 754Q146 785 106 785Q86 785 69 765Q23 756 23 726Q23 711 38 696L38 689Q38 648 71 648Q97 648 105 686Q119 650 138 650Q157 650 157 697Q171 708 171 718Z"  horiz-adv-x="375" vert-adv-y="1000"  />

      
      <glyph glyph-name="uni56" unicode="&#x56;" d="M221 3Q171 3 96-10Q46 531 11 700Q-9 700-9 733Q-9 755 2 772Q13 786 28 786Q38 786 47 774Q61 803 84 803Q100 803 111 786Q134 783 150 765Q164 746 164 726Q164 709 143 709L141 709Q144 658 150 573Q157 471 167 344Q178 352 185 352Q192 352 197 344Q238 523 251 723Q235 729 235 741Q235 753 253 768Q271 783 288 783Q306 783 333 768Q346 778 355 778Q369 778 382 757Q395 735 395 706Q395 687 380 681Q243 120 231 3L221 3M260 713Q260 694 274 694L279 694Q273 675 273 661Q273 642 285 642Q292 642 303 650Q313 619 329 619Q343 619 343 640Q343 647 338 664Q366 668 366 682L366 685L365 688Q381 692 381 711Q381 735 371 749Q361 764 349 764Q342 764 336 757Q303 772 289 772Q276 772 261 760Q247 748 247 741Q247 736 262 731L260 713M28 771Q5 771 5 734Q5 707 32 707L35 707Q29 697 29 686Q29 661 58 661Q68 661 86 669Q97 658 106 658Q120 658 120 668Q120 669 119 673L119 676L118 681L115 691L112 703L117 703Q130 703 130 717L130 722L135 722L139 721Q151 721 151 730Q151 744 137 758Q122 771 99 776Q93 790 86 790Q68 790 50 760Q39 771 28 771M176 259Q188 259 188 277L188 284Q206 289 206 306Q206 339 184 339Q170 339 156 328Q142 317 142 303Q142 287 165 284Q166 259 176 259Z"  horiz-adv-x="370" vert-adv-y="1000"  />

      
      <glyph glyph-name="uni57" unicode="&#x57;" d="M198 720Q198 754 221 754Q223 754 225 753L230 752L230 755L229 758Q229 778 253 778Q274 778 296 757Q318 735 318 708Q318 683 299 677L331 438Q347 451 356 451Q361 451 368 447Q378 528 390 657Q363 666 363 689Q363 708 384 717Q372 738 372 752Q372 781 399 781Q405 781 420 776Q421 798 442 798Q465 798 485 778Q505 756 505 731L505 723L504 719L503 715L510 715Q423 253 405 4L310-10Q293 123 257 326Q239 170 226 13L122 0Q70 373 0 704L11 705Q5 714 5 721Q5 732 14 742Q10 749 10 759Q10 787 40 787Q70 787 70 757L70 755Q84 764 94 764Q133 764 133 723L133 713L131 703Q146 693 146 678Q146 667 135 653L137 633L138 624L139 615Q143 583 145 568L153 507Q157 472 161 444Q168 448 177 448Q183 448 189 446Q204 583 209 690Q198 707 198 720M22 693Q22 666 44 666Q55 666 65 673Q69 651 94 651Q135 651 135 676Q135 688 119 704Q123 715 123 727Q123 751 93 751Q84 751 62 743Q59 774 36 774Q19 774 19 759Q19 749 23 738Q16 731 16 719Q16 711 23 704Q22 701 22 693M228 745Q208 745 208 720Q208 692 234 690Q234 666 254 666Q264 666 277 687L284 687Q306 687 306 708Q306 728 288 746Q268 763 247 763Q236 763 236 754L236 749L237 743Q229 745 228 745M375 686Q375 670 395 670Q415 670 430 698L430 693Q430 672 443 672Q451 672 455 681Q461 692 461 706L461 712Q468 699 475 699Q482 699 488 708Q495 718 495 732Q495 751 479 767Q463 783 444 783Q427 783 425 762Q412 772 401 772Q383 772 383 754Q383 739 398 713Q375 701 375 686M204 406Q204 418 195 427Q185 435 175 435Q146 435 146 396Q146 369 168 369Q177 369 183 384Q204 390 204 406M359 354Q383 354 383 391Q383 437 355 437Q344 437 333 423Q323 410 323 391Q323 369 334 369Q338 369 345 373Q348 354 359 354Z"  horiz-adv-x="509" vert-adv-y="1000"  />

      
      <glyph glyph-name="uni58" unicode="&#x58;" d="M271 336L288 291Q308 240 324 198Q365 94 404 2Q331 1 256-10Q239 64 193 213Q168 143 129-6Q59 2-3 6Q73 170 129 365Q89 532-4 709Q-12 717-12 725Q-12 749 2 769Q15 788 31 788Q41 788 55 778Q75 789 93 789Q123 789 142 774Q160 759 160 737Q160 719 144 712Q153 683 158 665Q167 638 175 614Q185 621 196 621Q210 621 214 609Q226 655 231 676Q235 692 236 700L238 709L240 717Q217 720 217 738Q217 760 235 776Q255 793 278 793Q297 793 310 780Q319 789 328 789Q342 789 352 773Q363 754 363 729Q363 712 350 705Q288 522 254 380L271 336M146 735Q146 752 130 765Q114 778 90 778Q70 778 50 766Q43 773 33 773Q3 773 3 723Q3 713 16 703Q13 696 13 690Q13 681 28 681L35 681L44 682Q39 669 39 667Q39 661 48 661L54 661L61 662Q62 640 83 640Q100 640 110 656Q122 671 122 695Q122 706 119 716Q146 719 146 735M260 710L258 698L256 689L254 677Q254 662 264 662Q267 662 271 665Q280 642 293 642Q308 642 308 666Q308 678 307 682Q313 679 318 679Q333 679 333 706Q351 714 351 734Q351 780 323 780Q315 780 306 771Q296 783 278 783Q258 783 242 769Q227 756 227 737Q227 727 247 724Q247 710 256 710L260 710M172 554Q172 539 185 539Q202 539 202 564Q208 561 213 561Q222 561 222 574Q222 585 213 597Q204 609 195 609Q182 609 166 595Q151 582 151 569Q151 555 161 555Q165 555 172 558L172 554Z"  horiz-adv-x="389" vert-adv-y="1000"  />

      
      <glyph glyph-name="uni59" unicode="&#x59;" d="M281 1Q253-2 219-5L186-8L152-11Q159 93 160 252Q139 349 9 703Q-11 711-11 730Q-11 783 60 783Q83 783 98 762Q106 782 120 782Q137 782 148 765Q160 749 160 723Q160 713 157 699L162 678L167 655Q175 628 179 604Q194 534 206 482Q227 494 239 494Q249 494 255 485L261 519L268 553Q270 562 273 580L276 595L279 611L284 637L288 661Q290 671 292 684L294 693L296 701Q277 713 277 738Q277 762 290 778Q303 794 320 794Q332 794 341 779Q357 795 371 795Q382 795 394 777Q405 786 415 786Q429 786 438 775Q448 765 448 748Q448 727 428 715L365 508L353 467L340 426Q337 416 331 396L326 378L320 359Q303 306 292 268Q288 254 285 245L283 237L281 1M53 772Q0 772 0 733Q0 716 22 712Q24 697 35 697L40 697Q35 682 35 677Q35 653 56 653Q68 653 79 667Q90 656 99 656Q113 656 123 666Q134 677 134 690L134 692Q151 704 151 721Q151 741 142 756Q133 770 122 770Q105 770 103 738Q90 772 53 772M321 781Q309 781 300 769Q291 756 291 737Q291 712 312 704L312 700Q312 667 339 667L343 668L347 668Q339 663 339 655Q339 641 356 641Q371 641 384 665L388 663L392 663Q415 663 415 713L415 724Q434 728 434 744Q434 775 409 775Q402 775 388 767Q379 784 370 784Q354 784 339 760Q332 781 321 781M226 391Q244 391 245 422Q264 429 264 448Q264 482 239 482Q223 482 209 471Q195 460 195 447Q195 434 211 427Q217 391 226 391Z"  horiz-adv-x="437" vert-adv-y="1000"  />

      
      <glyph glyph-name="uni5a" unicode="&#x5a;" d="M268 181Q290 181 290 154L290 149L289 143L297 146Q282 80 273 1Q244-6 214-6Q194-6 147-3Q101 0 73 0Q43 0-4-3Q70 197 147 586L121 586Q72 586 30 591L45 672Q38 665 33 665Q16 665 16 695Q16 739 79 748Q78 751 78 758Q78 797 114 797Q133 797 162 768Q167 801 194 801Q212 801 230 776L240 776Q270 776 283 765Q296 753 296 723L296 719L309 720Q263 577 181 187Q192 201 208 201Q231 201 250 177Q262 181 268 181M83 737L78 737Q56 737 42 725Q28 714 28 696Q28 680 44 680Q51 680 58 683Q61 656 74 640Q85 625 98 625Q110 625 110 660Q118 656 128 656Q145 656 148 683Q161 675 174 675Q194 675 209 699Q218 666 240 666Q255 666 264 686Q289 695 289 714Q289 765 245 765Q243 765 238 764L232 764L224 763Q211 790 193 790Q171 790 166 751Q129 787 108 787Q88 787 88 752Q88 740 89 736L83 737M238 92Q272 92 272 122L272 125L271 129Q284 136 284 148Q284 170 260 170Q253 170 244 167Q225 192 205 192Q191 192 183 177Q170 171 170 157Q170 123 212 114Q215 92 238 92Z"  horiz-adv-x="324" vert-adv-y="1000"  />

      
      <glyph glyph-name="uni5b" unicode="&#x5b;" d="M163 681Q169 681 174 692Q180 704 180 721Q180 732 176 743Q181 755 181 766Q181 790 164 805Q147 821 118 821Q85 821 85 792L87 778Q74 781 65 781Q33 781 33 752L33 739L35 729L36 719Q26 692 26 675Q26 642 39 642Q51 642 80 710Q92 686 103 686Q109 686 116 696Q124 707 129 726Q146 681 163 681M38 634Q31 634 23 645Q16 658 16 676Q16 698 26 719Q21 749 21 753Q21 792 56 792Q64 792 74 789L74 793Q74 833 118 833Q151 833 172 815Q192 798 192 770Q192 761 189 747L210 748Q212 734 212 718Q212 694 206 670L160 664Q149 471 149 175Q149 59 153-9L201-20L200-29L198-37Q197-45 196-51L192-70L187-89Q162-92 134-92Q87-92 44-84Q39 124 39 192Q39 395 47 640Q43 634 38 634Z"  horiz-adv-x="227" vert-adv-y="1000"  />

      
      <glyph glyph-name="uni5c" unicode="&#x5c;" d="M16 663Q28 663 34 686Q40 670 56 670Q73 670 73 688Q73 711 49 711L41 711Q34 741 9 741Q-27 741-27 718Q-27 711-13 711Q-13 684-4 684Q4 684 4 697Q10 663 16 663M-35 720Q-35 749 8 749Q41 749 47 718L51 719L55 719Q81 719 81 687Q81 666 65 663Q100 545 179 304L210 211L241 117L250 91L258 65Q267 36 274 16Q291-38 302-75L234-93Q89 335-24 708Q-35 710-35 720Z"  horiz-adv-x="278" vert-adv-y="1000"  />

      
      <glyph glyph-name="uni5d" unicode="&#x5d;" d="M57 763Q47 760 47 750Q47 738 78 729Q67 702 67 687Q67 678 73 678Q84 678 106 712Q125 681 130 681Q145 681 151 706Q167 654 183 654Q192 654 192 676Q192 684 189 705Q199 726 199 742Q199 765 183 766L176 767L170 767L160 769Q151 771 151 780Q151 783 154 787L156 791Q157 793 157 794Q157 813 128 813Q87 813 87 780L87 775L88 769Q64 765 57 763M183 644Q187 489 187 383Q187 147 175-93Q111-90 82-90Q72-90 16-92Q14-68 14-65Q14-36 21-14L66-7Q77 186 77 481Q77 611 74 666L27 673Q28 707 39 746L39 749Q39 770 80 778L80 786Q80 822 131 822Q148 822 159 815Q169 809 169 801Q169 797 166 791Q163 785 163 783Q163 778 170 778Q172 778 174 779L181 779Q210 779 210 742Q210 722 199 703Q201 693 202 685Q203 679 203 676Q203 644 184 644L183 644Z"  horiz-adv-x="227" vert-adv-y="1000"  />

      
      <glyph glyph-name="uni5e" unicode="&#x5e;" d="M561 713L796 439L681 439L500 620L318 439L203 439L438 713L561 713Z"  horiz-adv-x="1000" vert-adv-y="1000"  />

      
      <glyph glyph-name="uni5f" unicode="&#x5f;" d="M500-136L500-236L0-236L0-136L500-136Z"  horiz-adv-x="500" vert-adv-y="1000"  />

      
      <glyph glyph-name="uni2018" unicode="&#x2018;" d="M96 741Q96 765 73 765Q25 765 25 712Q25 690 41 686Q53 666 59 666Q65 666 70 698Q82 677 89 677Q97 677 98 695Q114 655 134 655Q142 655 142 676Q142 735 110 735L103 734L96 733L96 741M14 712Q14 776 78 776Q105 776 105 742L110 743L113 743Q117 744 118 744Q153 744 153 673Q153 643 135 641Q146 589 169 538Q133 519 92 512Q44 595 30 678Q14 684 14 712Z"  horiz-adv-x="190" vert-adv-y="1000"  />

      
      <glyph glyph-name="uni61" unicode="&#x61;" d="M190 236Q173 236 159 216Q145 196 145 166L145 154Q165 166 178 166Q191 166 201 151Q200 177 191 236L190 236M328 22Q266 16 206-13L205 53Q146-9 100-9Q60-9 34 24Q7 59 7 117Q7 197 51 247Q94 296 174 302Q158 354 108 354Q90 354 78 345Q89 384 89 438L89 453Q76 462 76 478Q76 511 110 515Q109 517 109 524Q109 560 157 560Q200 560 200 513L207 514L214 514Q271 514 271 442Q271 423 261 410Q319 316 325 131L328 22M126 422Q146 422 165 459Q174 421 189 421Q196 421 210 428Q225 381 237 381Q251 381 251 392Q251 399 244 412Q256 424 256 447Q256 502 213 502L202 502L189 501L189 506Q189 549 158 549Q117 549 117 523Q117 515 120 506L117 506Q85 506 85 479Q85 467 97 458Q105 422 126 422M176 61Q191 61 195 98Q206 106 206 118Q206 133 197 143Q190 153 178 153Q162 153 149 143Q136 133 136 118Q136 104 151 98Q157 61 176 61Z"  horiz-adv-x="345" vert-adv-y="1000"  />

      
      <glyph glyph-name="uni62" unicode="&#x62;" d="M162 511Q132 511 132 476Q132 431 172 431L176 432L180 432Q189 410 204 410Q230 410 230 446L230 449Q236 458 236 464Q236 476 226 486Q216 496 201 496L196 495L189 494Q178 511 162 511M49 649Q62 649 73 684Q77 656 100 656Q117 656 126 678Q138 673 142 673Q160 673 160 695Q160 744 109 745Q105 781 70 781Q37 781 37 756L38 751L38 746L39 739Q10 731 10 719Q10 708 28 694Q31 649 49 649M145 516Q155 523 164 523Q178 523 190 506Q200 508 202 508Q220 508 234 494Q248 478 248 462Q248 456 242 448Q280 423 302 364Q326 303 326 223Q326 125 291 61Q258 0 209 0Q167 0 137 59L138-4Q118 0 72 0L51 0L28-1Q31 194 31 369Q31 498 22 682Q0 703 0 719Q0 739 31 748Q29 758 29 759Q29 793 72 793Q112 793 119 753Q172 751 172 697Q172 662 148 662Q141 662 139 663L145 516M198 135Q214 141 214 154Q214 192 174 192Q150 192 150 141Q150 90 182 90Q198 90 198 129L198 135M144 172Q150 204 175 204Q189 204 202 193Q206 210 206 232Q206 281 188 309Q172 337 144 339L144 172Z"  horiz-adv-x="343" vert-adv-y="1000"  />

      
      <glyph glyph-name="uni63" unicode="&#x63;" d="M226 332Q214 347 197 347Q168 347 152 316Q134 283 134 226Q134 165 167 126Q185 141 202 141Q228 141 233 106L240 112Q237 81 237 52Q237 29 238 22Q209-16 160-16Q102-16 61 46Q19 111 19 214Q19 322 65 399Q62 407 62 410Q62 427 78 443Q75 464 75 480Q75 522 105 522L111 522Q112 541 131 555Q150 568 175 568Q219 568 219 534L217 524Q249 516 249 493Q249 479 233 464Q242 459 247 450Q230 393 226 332M222 468Q236 479 236 490Q236 507 205 517Q207 523 208 528Q209 532 209 534Q209 556 173 556Q122 556 122 512L122 508Q115 511 109 511Q86 511 86 484Q86 473 93 442Q77 426 77 407Q77 386 92 386Q118 386 118 435Q127 409 143 409Q170 409 180 455Q188 411 204 411Q222 411 222 456L222 468M189 76Q189 59 203 59Q225 59 225 92Q225 128 199 128Q185 128 172 117Q159 107 159 95Q159 78 175 78Q182 78 189 82L189 76Z"  horiz-adv-x="269" vert-adv-y="1000"  />

      
      <glyph glyph-name="uni64" unicode="&#x64;" d="M209 58Q179-3 126-3Q81-3 49 62Q17 132 17 247Q17 365 68 435Q53 447 53 462Q53 494 95 494L97 494L97 498L96 502Q96 540 149 540Q180 540 196 506L194 630L193 630Q156 630 156 701Q156 758 197 758Q206 758 209 757Q212 795 246 795Q278 795 304 775Q328 754 328 724Q328 702 313 690L312 674L311 660Q310 647 310 621Q308 551 308 513Q308 499 310 409Q311 380 311 351L311 221Q311 63 324 5Q270-7 218-16L209 58M172 323Q125 323 125 253Q125 211 144 183Q161 197 174 197Q187 197 200 179L199 212L198 245L197 266L197 284Q197 305 196 314Q184 323 172 323M77 428Q77 398 100 398Q120 398 131 418Q140 394 155 394Q172 394 181 417Q213 417 213 455Q213 468 197 477Q173 527 142 527Q104 527 104 501Q104 493 107 484Q62 484 62 460Q62 449 77 437L77 428M319 727Q319 749 296 767Q274 785 245 785Q220 785 220 757L221 752L221 747L211 748L206 749L202 749Q168 749 168 701Q168 639 201 639Q243 639 258 680Q270 660 284 660Q300 660 303 697Q319 710 319 727M174 104Q188 104 191 131Q202 140 202 153Q202 164 194 174Q185 183 174 183Q141 183 141 157Q141 156 143 148Q141 138 141 137Q141 121 159 121Q159 104 174 104Z"  horiz-adv-x="343" vert-adv-y="1000"  />

      
      <glyph glyph-name="uni65" unicode="&#x65;" d="M156 178Q161 151 176 136Q177 155 192 155Q197 155 203 152Q208 170 233 170Q256 170 256 144Q261 149 265 149Q273 149 276 138L284 146L285 134L286 122Q287 116 287 110L287 100Q287 68 281 30Q237-8 176-8Q101-8 61 53Q19 115 19 228Q19 373 100 452Q85 466 85 478Q85 489 114 510L114 514Q114 555 162 555Q198 555 205 512L219 514Q256 514 256 468Q256 467 254 449Q299 389 307 223Q236 197 156 178M222 440L227 439Q247 439 247 465Q247 505 206 505Q199 505 196 504Q187 544 162 544Q121 544 121 507L121 499Q95 484 95 475Q95 465 109 454Q109 406 128 406Q147 406 162 437Q173 422 182 422Q192 422 217 441L222 440M170 363Q140 363 140 301Q140 300 141 289L141 277Q142 270 142 262Q170 267 198 277Q196 363 170 363M196 144Q183 144 183 121Q183 88 203 88Q218 88 234 106Q240 92 253 92Q272 92 272 119Q272 136 265 136Q264 136 258 134Q252 133 246 128Q246 159 229 159Q212 159 206 140Q203 142 200 143L197 144L196 144Z"  horiz-adv-x="326" vert-adv-y="1000"  />

      
      <glyph glyph-name="uni66" unicode="&#x66;" d="M270 681Q270 645 243 544Q223 576 201 576Q173 576 162 532Q151 490 151 398L151 388Q151 381 152 374L152 349Q163 382 192 382Q212 382 215 362Q220 358 226 357L232 355L236 354Q245 350 245 337L245 334L244 330Q243 326 243 320L244 314L246 309Q249 302 249 298Q249 289 233 276Q232 245 226 212Q182 195 153 192Q152 179 152 165L152 111Q152 46 159 1Q126 4 95 4Q53 4 28 0Q31 84 31 319L31 362Q30 373 30 384L30 398Q30 575 78 645L78 651Q78 664 82 673Q78 680 78 692Q78 728 121 728Q131 728 142 724Q166 760 193 760Q217 760 236 742Q255 724 255 698L255 695L258 694L261 693Q264 692 270 688L270 681M244 698Q244 720 229 735Q214 750 192 750Q171 750 145 714Q128 719 120 719Q88 719 88 688Q88 679 91 670Q86 657 86 651Q86 634 99 634Q110 634 131 659Q131 613 155 613Q169 613 187 657Q193 629 209 629Q229 629 231 673Q244 676 244 698M162 314Q162 299 173 299Q183 299 197 316Q202 301 210 291Q218 282 224 282Q230 282 234 289Q239 297 239 303Q239 307 236 313Q232 318 232 322L233 330L234 338Q234 348 224 348L220 348Q214 348 207 355Q207 372 191 372Q158 372 158 334Q158 330 159 328Q161 324 163 322Q162 320 162 314Z"  horiz-adv-x="250" vert-adv-y="1000"  />

      
      <glyph glyph-name="uni67" unicode="&#x67;" d="M334 364Q314 347 288 332Q296 295 296 272Q296 189 257 138Q220 87 161 87Q149 87 146 88Q241 2 278-121L177-167Q131-29 6 48L58 144Q22 197 22 285Q22 407 96 466Q78 481 78 494Q78 509 105 525Q134 543 165 543Q176 543 185 537Q190 534 191 531Q193 529 193 527Q193 526 192 526L199 526Q263 526 267 471Q275 473 276 473Q289 473 289 448L308 454Q314 403 334 364M201 279Q201 301 190 317Q178 332 161 332Q124 332 124 279Q124 262 130 247Q133 265 147 265Q155 265 162 256L166 257L169 257Q181 257 185 236Q201 251 201 279M102 448Q102 424 117 424Q129 424 147 456Q156 421 170 421Q184 421 195 438Q197 397 223 397Q235 397 253 421L257 421Q282 421 282 441Q282 462 269 462Q264 462 256 457Q251 516 190 516L183 516Q178 533 164 533Q138 533 113 517Q90 502 90 491Q90 481 105 469Q102 457 102 448M144 185L144 181Q144 165 156 165Q169 165 176 189Q191 195 191 208Q191 215 181 218Q176 247 163 247L161 247L158 246Q151 253 148 253Q137 253 137 241L137 237Q120 229 120 214Q120 198 145 189L144 185Z"  horiz-adv-x="326" vert-adv-y="1000"  />

      
      <glyph glyph-name="uni68" unicode="&#x68;" d="M158 509Q167 509 181 501Q194 509 209 509Q230 509 236 482Q271 480 271 436Q271 420 268 403Q326 335 326 130Q326 65 320 9Q253 3 203-13L207 44Q209 86 209 100Q209 210 197 256Q184 307 153 307L149 307L145 306L145 244Q145 120 150 23Q84 15 28-6Q30 79 31 167L31 250L32 331Q32 536 35 630Q14 645 14 665L14 670L15 676Q-3 691-3 715Q-3 757 39 757Q52 757 61 753L61 757L60 761Q60 797 98 797Q117 797 130 787Q142 777 142 763Q142 762 140 752Q169 744 169 721Q169 705 154 690Q154 681 151 619Q150 594 148 567L147 535L146 503Q154 509 158 509M159 497Q143 497 143 471Q143 450 152 436Q161 422 173 422Q188 422 205 442Q210 427 219 427Q226 427 233 431Q236 405 252 405Q261 405 261 441Q261 474 231 474L228 474Q222 497 204 497Q194 497 183 489Q172 497 159 497M159 719Q159 739 133 741Q135 751 135 753Q135 785 97 785Q69 785 69 743L69 738Q48 744 36 744Q8 744 8 712Q8 697 26 682L24 668Q24 643 42 643Q58 643 59 670Q68 651 78 651Q89 651 109 680Q115 656 127 656Q145 656 145 684Q145 694 144 697Q159 709 159 719Z"  horiz-adv-x="352" vert-adv-y="1000"  />

      
      <glyph glyph-name="uni69" unicode="&#x69;" d="M22 696Q19 702 19 708Q19 723 38 733Q38 760 71 760Q97 760 100 731Q111 734 119 734Q150 734 150 706Q150 699 142 691L141 560L25 556L18 696L22 696M48 726Q28 715 28 700Q28 685 42 669Q56 654 67 654Q82 654 91 678Q104 656 116 656Q131 656 131 676Q131 678 129 688Q139 695 139 706Q139 723 118 723Q111 723 94 718Q91 747 73 747Q48 747 48 730L48 726M141 430Q154 443 154 452Q154 461 128 473Q131 481 131 487Q131 516 90 516Q61 516 61 490Q61 483 64 475Q17 466 17 431Q17 419 24 412Q30 404 38 404Q45 404 51 418Q70 405 84 405Q92 405 106 413Q114 390 126 390Q141 390 141 421L141 430M30 389Q4 389 4 433Q4 452 17 468Q30 482 51 484L51 488L50 492Q50 528 90 528Q113 528 126 518Q139 508 139 494Q139 488 136 482Q165 471 165 453Q165 439 149 424Q146 375 146 345L146 330L147 319L147 289Q148 269 148 247Q149 204 149 152L149-2Q109 4 67 4Q39 4 31 3Q34 176 34 389L30 389Z"  horiz-adv-x="185" vert-adv-y="1000"  />

      
      <glyph glyph-name="uni6a" unicode="&#x6a;" d="M35 696Q35 650 61 650Q76 650 80 674Q97 657 112 657Q141 657 141 701Q141 721 110 721L106 721Q103 748 81 748Q62 748 47 736Q31 723 31 708Q31 704 35 700L35 696M121 729Q151 729 151 701L151 697L159 694L150 570L30 570L30 605Q30 620 28 694Q21 701 21 709Q21 727 40 743Q60 760 81 760Q114 760 114 731L114 729L121 729M157 472Q157 485 131 494L131 501Q131 522 124 529Q116 537 96 537Q63 537 37 516Q12 497 12 470Q12 462 15 454Q9 430 9 422Q9 397 25 397Q37 397 44 419Q61 406 73 406Q91 406 106 437Q111 411 125 411Q142 411 142 450Q157 462 157 472M24 382Q14 382 6 393Q-3 404-3 420Q-3 429 5 448Q-1 460-1 469Q-1 498 29 523Q61 549 97 549Q138 549 138 511L138 505Q167 491 167 473Q167 457 152 443Q150 195 150 167Q150 73 143 34Q132-33 98-79Q44-93-10-93Q35-28 35 177L35 252Q34 274 34 317L34 350L33 385Q29 382 24 382Z"  horiz-adv-x="190" vert-adv-y="1000"  />

      
      <glyph glyph-name="uni6b" unicode="&#x6b;" d="M184 464Q184 483 204 501Q227 519 253 519Q288 519 300 485Q325 482 325 460Q325 452 323 450L331 444Q288 242 258 209Q310 157 349 14Q289-12 229-12Q202 79 186 119Q168 163 149 163L146 163Q146 79 154 10L27 7Q31 86 31 190Q31 291 26 619Q11 628 11 654L11 661L12 669Q-3 686-3 704Q-3 729 26 737Q25 738 25 743Q25 754 39 765Q52 775 73 775Q111 775 111 744L111 734L112 736L112 737L110 735Q134 734 153 710Q171 688 171 658Q171 618 147 618L146 618L145 316L149 316Q172 316 182 297Q204 355 212 439Q184 439 184 464M306 402Q318 402 318 417Q318 428 311 441Q314 450 314 456Q314 475 293 475L290 475Q286 506 249 506Q229 506 212 492Q197 479 197 462Q197 452 218 449Q219 394 245 394Q267 394 283 425Q295 402 306 402M19 657Q19 633 34 633Q46 633 64 669Q81 636 98 636Q109 636 121 650Q124 629 136 629Q162 629 162 657Q162 683 145 703Q128 724 100 728L101 732L101 736Q101 766 71 766Q35 766 35 738L37 728Q7 721 7 704Q7 693 22 681Q19 668 19 657M183 260Q183 280 173 293Q163 305 149 305Q138 305 128 292Q119 280 119 264Q119 252 133 244L133 237Q133 217 145 217Q162 217 166 245Q183 250 183 260Z"  horiz-adv-x="347" vert-adv-y="1000"  />

      
      <glyph glyph-name="uni6c" unicode="&#x6c;" d="M147 702Q156 707 156 714Q156 736 137 755Q118 774 94 774Q63 774 61 739L56 740L53 740Q49 741 48 741Q15 741 15 684Q15 641 49 641Q75 641 82 657Q87 631 98 631Q121 631 121 661L121 668Q127 665 131 665Q147 665 147 695L147 702M4 680Q4 711 16 732Q28 752 45 752Q47 752 55 750L55 754Q55 786 96 786Q123 786 146 763Q169 740 169 714Q169 705 158 697Q148 466 148 285Q148 132 156-12L37-5Q32 160 32 301Q32 411 40 630Q4 636 4 680Z"  horiz-adv-x="181" vert-adv-y="1000"  />

      
      <glyph glyph-name="uni6d" unicode="&#x6d;" d="M426 445Q426 444 424 422Q470 361 470 164Q470 118 465 20Q414 19 357 4Q363 106 363 191Q363 259 354 284Q344 314 315 314L308 314L301 313Q307 231 307 177Q307 109 302 1Q242-4 199-14Q203 89 203 174Q203 258 198 286Q192 321 169 321Q159 321 145 311Q144 288 144 203Q144 103 147-5L28-3Q34 174 34 278Q34 347 26 467Q12 473 12 484Q12 501 29 515Q46 529 69 529Q93 529 121 514Q129 555 151 555Q159 555 171 549Q188 573 216 573Q259 573 271 528Q299 553 320 553Q385 553 385 513Q385 511 383 501Q426 497 426 445M373 507Q373 543 326 543Q298 543 263 516Q256 558 216 558Q191 558 174 538Q164 544 156 544Q136 544 131 499Q94 518 66 518Q27 518 27 489Q27 480 36 478Q41 439 71 439Q80 439 83 440Q92 412 112 412Q141 412 163 446Q173 412 193 412Q204 412 216 428Q228 444 234 474Q272 388 318 388Q344 388 344 422Q344 438 340 453Q362 419 393 419Q415 419 415 450Q415 491 369 491Q373 498 373 507Z"  horiz-adv-x="502" vert-adv-y="1000"  />

      
      <glyph glyph-name="uni6e" unicode="&#x6e;" d="M207 62Q207 195 198 250Q189 312 164 312Q156 312 149 308Q143 155 143 5Q94-2 42-2L25-2Q34 187 34 305Q34 364 31 469L43 472Q41 482 41 484Q41 513 64 513Q67 513 72 512Q77 511 85 509L84 519L84 526Q83 529 83 533L83 536Q83 575 114 575Q130 575 152 547Q155 548 163 548Q190 548 195 516Q210 521 215 521Q250 521 250 479Q250 478 248 460Q325 353 325 110Q325 59 319 6Q261-11 207-16L207 62M75 500Q54 500 54 475Q54 445 76 445Q82 445 87 453Q99 425 111 425Q137 425 147 461Q158 440 170 440Q177 440 186 446Q207 419 222 419Q243 419 243 441Q241 443 241 446L241 451L240 451Q236 451 235 458Q238 472 238 480Q238 508 208 508Q199 508 187 503Q183 533 161 533Q154 533 152 532Q136 560 120 560Q93 560 93 528Q93 517 99 493Q86 500 75 500Z"  horiz-adv-x="350" vert-adv-y="1000"  />

      
      <glyph glyph-name="uni6f" unicode="&#x6f;" d="M196 233Q196 305 156 305Q120 305 120 235Q120 217 123 196Q127 200 134 200L138 200L142 198Q154 210 166 210Q180 210 190 189Q196 212 196 233M29 402Q29 432 66 447L66 456Q66 494 98 494L103 494Q115 519 148 519Q195 519 211 485Q240 483 256 465Q273 446 273 417Q273 400 256 400Q299 324 299 238Q299 129 259 62Q220-4 161-4Q97-4 59 61Q19 128 19 247Q19 323 46 369Q29 384 29 402M107 486Q79 486 79 459Q79 451 82 442Q45 430 45 405Q45 375 67 375Q86 375 112 395Q123 365 146 365Q173 365 189 408Q201 393 211 393Q227 393 241 416Q246 410 250 410Q259 410 259 421Q259 471 208 471L201 471Q186 506 147 506Q122 506 111 486L107 486M200 162Q200 171 187 177Q177 198 165 198Q154 198 146 183Q140 190 134 190Q121 190 121 166Q121 150 146 143Q152 115 166 115Q187 115 190 139Q200 149 200 162Z"  horiz-adv-x="318" vert-adv-y="1000"  />

      
      <glyph glyph-name="uni70" unicode="&#x70;" d="M144 184Q155 207 169 207Q187 207 203 189Q213 212 213 245Q213 315 173 315Q161 315 145 305L144 184M145-96Q81-102 18-119Q30 61 30 234Q30 357 15 451L34 458L34 463Q34 486 58 486Q61 486 67 485Q74 484 83 482Q81 492 81 504Q81 552 123 552Q177 552 202 491Q226 497 241 497Q277 497 277 454L275 438Q324 374 324 252Q324 138 285 67Q247-1 194-1Q160-1 145 28L145-96M68 473Q50 473 50 455Q50 417 70 417Q79 417 85 426Q100 398 119 398Q139 398 155 431Q163 413 179 413Q190 413 211 423Q241 387 269 387Q281 387 281 399Q281 414 264 431L264 442Q264 485 238 485Q227 485 198 476Q170 537 126 537Q92 537 92 499Q92 490 99 466Q86 469 76 471Q69 473 68 473M208 153Q208 169 195 182Q182 195 170 195Q161 195 153 181Q145 167 145 149Q145 100 167 100Q188 100 192 139Q208 142 208 153Z"  horiz-adv-x="343" vert-adv-y="1000"  />

      
      <glyph glyph-name="uni71" unicode="&#x71;" d="M200 315Q186 329 170 329Q127 329 127 245Q127 218 132 191Q149 206 165 206Q191 206 196 177L200 181L200 315M310 273Q310 145 315-97Q241-100 194-110Q197-52 203 41Q173 2 133 2Q83 2 52 57Q19 116 19 216Q19 374 86 444Q94 503 127 503L134 503L139 502L143 501L143 505L142 508Q142 534 169 534Q177 567 198 567Q220 567 237 553Q254 539 254 520L254 518Q270 528 289 528Q331 528 331 497Q331 480 312 471Q310 303 310 273M245 508L245 512Q245 530 232 543Q219 556 203 556Q180 556 174 523L172 523Q148 523 148 497L149 493L149 489Q134 493 129 493Q104 493 96 440Q82 428 82 418Q82 405 101 405Q152 405 175 443Q195 410 214 410Q231 410 243 439Q249 428 261 428Q294 428 302 478Q316 486 316 496Q316 517 289 517Q269 517 244 504L245 508M137 134Q137 118 151 118Q162 118 169 134Q176 130 183 130Q198 130 198 146Q198 158 188 168Q183 194 166 194Q151 194 141 184Q130 173 130 160Q130 153 140 146Q137 140 137 134Z"  horiz-adv-x="343" vert-adv-y="1000"  />

      
      <glyph glyph-name="uni72" unicode="&#x72;" d="M50 460Q50 421 66 421Q75 421 87 434Q99 404 122 404Q147 404 149 430Q162 387 189 387Q214 387 214 418Q214 444 193 457Q196 469 196 477Q196 509 148 518Q146 556 112 556Q84 556 73 548Q62 539 62 517L62 514Q35 511 35 492Q35 482 50 470L50 460M215 465Q241 465 273 445Q264 376 232 319Q206 333 182 333Q170 333 152 328Q155 247 155 182Q155 76 151-16Q96-2 34-1Q36 95 36 117Q36 267 27 466L41 468Q26 480 26 494Q26 515 54 522Q54 567 105 567Q156 567 160 524Q210 519 210 474L210 470L209 465L215 465Z"  horiz-adv-x="266" vert-adv-y="1000"  />

      
      <glyph glyph-name="uni73" unicode="&#x73;" d="M215 444Q215 397 203 359Q191 362 182 362Q149 362 149 327Q149 312 158 289L160 284L162 279Q164 272 166 267L177 243Q204 179 204 131Q204 61 159 17Q113-27 33-32L26 11Q0 34 0 70Q0 130 32 130Q44 130 52 113Q67 124 67 149Q67 177 43 241Q18 304 18 339Q18 364 31 394L28 394L26 393Q5 393 5 441Q5 512 64 512Q70 539 110 539Q166 539 185 484Q197 484 213 482Q215 448 215 444M159 449Q174 449 174 476Q174 528 105 528Q77 528 75 505Q39 503 27 491Q14 478 14 442Q14 403 31 403Q46 403 58 428Q67 412 76 412Q100 412 113 445Q127 412 139 412Q151 412 151 432Q151 440 148 452Q154 449 159 449M53 47Q77 58 77 82Q77 104 57 104L52 104L46 102Q43 120 30 120Q11 120 11 72Q11 46 21 30Q30 14 42 14Q53 14 53 39L53 47Z"  horiz-adv-x="223" vert-adv-y="1000"  />

      
      <glyph glyph-name="uni74" unicode="&#x74;" d="M174 594Q188 605 188 622Q188 644 170 659Q153 675 124 675Q94 675 92 646Q36 646 36 585Q36 522 53 522Q75 522 84 571Q88 549 99 549Q116 549 133 581Q148 546 163 546Q174 546 174 587L174 594M49 513Q34 513 30 532Q26 547 26 592Q26 651 81 654Q87 687 123 687Q154 687 177 667Q199 648 199 620Q199 602 186 589Q181 501 181 421Q219 413 222 376L238 380Q239 296 246 260Q229 251 184 245Q184 104 189 1L165 2L141 2Q132 2 76 0L69 243Q30 248 12 254L18 364L28 363L28 366Q28 395 59 401L53 513L49 513M195 343Q201 343 207 351Q212 359 212 369Q212 387 202 398Q192 410 180 410Q155 410 155 385Q155 368 175 366Q184 343 195 343M66 338Q80 338 80 368Q80 392 60 392Q51 392 43 384Q35 376 35 366Q35 343 43 343Q47 343 53 346Q61 338 66 338Z"  horiz-adv-x="257" vert-adv-y="1000"  />

      
      <glyph glyph-name="uni75" unicode="&#x75;" d="M327 486Q327 507 295 510Q292 550 261 550Q231 550 231 514Q231 505 232 502Q183 493 183 439Q183 415 199 415Q213 415 233 450Q234 419 245 419Q255 419 279 456Q288 419 302 419Q315 419 315 459Q327 483 327 486M196 405Q174 405 174 439Q174 498 220 507L220 513Q220 561 261 561Q301 561 303 520Q340 508 340 489Q340 481 329 457Q329 411 308 403L309 28L213-8L206 54Q165-11 118-11Q28-11 28 234Q28 311 42 453Q4 461 4 481Q4 509 30 540Q56 569 82 569Q106 569 112 541Q125 546 130 546Q153 546 153 525Q153 515 147 506Q163 497 163 486Q163 475 154 464Q140 329 140 242Q140 219 143 198Q154 210 168 210Q181 210 200 198L199 405L196 405M79 558Q62 558 41 533Q20 508 20 487Q20 469 50 467Q56 416 76 416Q90 416 111 471Q121 464 132 464Q150 464 150 484Q150 498 125 504Q141 510 141 521Q141 534 127 534Q119 534 105 528Q95 558 79 558M210 163Q210 177 197 187Q186 197 168 197Q157 197 148 188Q140 178 140 167Q140 155 154 147Q162 108 176 108Q197 108 200 147Q210 154 210 163Z"  horiz-adv-x="343" vert-adv-y="1000"  />

      
      <glyph glyph-name="uni76" unicode="&#x76;" d="M228 535Q203 535 178 513Q153 491 153 470Q153 449 185 449L192 450L200 450L200 441Q200 387 222 387Q243 387 265 450Q277 444 286 444Q305 444 305 464Q305 477 280 483Q295 488 295 500Q295 514 281 514Q278 514 274 512Q268 510 262 507Q247 535 228 535M175 436Q136 436 136 461Q136 494 166 522Q196 549 232 549Q258 549 266 520Q277 528 282 528Q307 528 307 503Q307 493 303 486Q316 474 316 462Q316 441 288 432L217 141Q201 75 189-2L78 0Q47 252 6 441Q4 440-1 440Q-17 440-17 477Q-17 508 2 527Q21 546 51 546Q78 546 106 523Q131 501 131 482Q131 469 108 454L134 266Q137 268 141 269Q144 270 147 270Q148 270 156 268L187 436L175 436M99 466Q114 477 114 484Q114 496 93 512Q69 530 47 530Q-4 530-4 478Q-4 451 11 451L13 452L16 452L16 442Q16 401 38 401Q61 401 65 444Q74 431 83 431Q99 431 99 461L99 466M180 226Q180 240 171 250Q161 259 149 259Q119 259 119 219Q119 203 127 189Q136 176 147 176Q163 176 164 206Q180 213 180 226Z"  horiz-adv-x="289" vert-adv-y="1000"  />

      
      <glyph glyph-name="uni77" unicode="&#x77;" d="M429 304Q429 159 385 69Q345-12 286-12Q233-12 210 59Q169 3 136 3Q80 3 50 81Q19 159 19 312Q19 396 25 448Q9 455 9 467Q9 492 31 513Q53 535 83 535Q104 535 110 511Q118 518 123 518Q142 518 142 497Q142 492 139 484Q149 477 149 466Q149 447 130 440Q120 370 120 293Q120 241 127 209Q132 217 144 217Q157 217 175 205Q172 249 172 267L172 288L173 296L173 305Q173 319 174 326Q175 368 175 456Q160 473 160 492Q160 522 185 522Q192 522 203 514Q218 536 232 536Q259 536 275 518Q293 500 293 474Q293 462 277 450Q270 363 270 273Q270 242 273 210Q285 219 298 219Q315 219 321 205Q328 234 328 284Q328 358 316 458Q304 478 304 498Q304 534 349 534L354 534Q361 541 369 541Q399 541 406 510Q427 504 427 490Q427 481 415 479Q429 435 429 304M80 523Q61 523 42 504Q21 485 21 467Q21 455 48 455L61 455Q70 415 83 415Q94 415 109 456Q119 451 127 451Q141 451 141 466Q141 477 121 482Q134 486 134 497Q134 506 122 506Q115 506 107 501Q95 523 80 523M190 451L189 446Q189 418 206 418Q217 418 227 428Q234 406 250 406Q257 406 259 417Q260 420 260 432L260 442L261 454Q277 464 277 477Q277 521 237 521Q212 521 208 496Q197 507 188 507Q171 507 171 488Q171 481 190 456L190 451M391 426Q407 426 407 462Q407 464 406 469L406 475L405 482Q416 485 416 490Q416 501 398 504Q388 531 370 531Q364 531 355 525L350 525Q314 525 314 496Q314 482 326 464Q332 437 349 437Q362 437 372 455Q374 426 391 426M184 169Q184 182 171 194Q158 206 144 206Q121 206 121 170Q121 153 140 140Q142 108 153 108Q168 108 171 152Q184 156 184 169M279 151Q279 130 296 130Q321 130 321 166Q321 208 299 208Q286 208 275 197Q264 186 264 173Q264 162 279 154L279 151Z"  horiz-adv-x="449" vert-adv-y="1000"  />

      
      <glyph glyph-name="uni78" unicode="&#x78;" d="M164 345Q170 370 175 396Q177 405 178 415L180 423L181 430Q167 450 167 464Q167 497 202 497Q210 497 219 494Q222 527 245 527Q251 527 258 524Q268 540 279 540Q297 540 316 521Q335 502 335 482Q335 453 313 453Q312 453 302 455L229 249L347 0Q292-5 231-25L176 119L119-26L5 0Q56 95 114 253L33 428L19 426Q-7 426-7 463Q-7 496 17 521Q39 546 70 546Q96 546 103 516Q114 524 120 524Q145 524 145 499Q145 494 140 482Q153 469 153 458Q153 446 143 437L164 345M66 535Q46 535 26 515Q6 492 6 464Q6 438 21 438Q25 438 40 443Q58 396 71 396Q84 396 102 447Q112 440 123 440Q142 440 142 460Q142 473 117 479Q133 485 133 497Q133 510 118 510Q113 510 100 503Q88 535 66 535M231 480Q213 485 200 485Q178 485 178 467Q178 448 194 432Q211 414 229 414Q252 414 252 449L252 455Q261 422 274 422Q282 422 296 472Q301 469 306 467Q309 465 312 465Q322 465 322 484Q322 497 308 513Q293 528 278 528Q268 528 265 510Q254 514 249 514Q230 514 230 489L231 485L231 480Z"  horiz-adv-x="343" vert-adv-y="1000"  />

      
      <glyph glyph-name="uni79" unicode="&#x79;" d="M179 444Q179 476 209 504Q238 531 274 531Q300 531 308 502Q319 510 325 510Q350 510 350 485Q350 480 345 468Q358 455 358 444Q358 429 339 417Q218-71 211-139Q155-121 100-120L141 41L117 9Q57 39 39 143Q34 176 27 274Q24 329 20 355Q15 415 9 447Q-6 461-6 473Q-6 493 16 512Q41 532 68 532Q85 532 98 522L103 523L107 523Q151 523 151 480Q151 457 127 434Q133 275 148 197Q159 206 170 206L174 206L178 205Q198 285 223 413Q179 413 179 444M139 480Q139 507 103 507L99 507L94 506Q80 519 66 519Q45 519 27 504Q10 490 10 474Q10 464 24 453Q24 410 51 410Q59 410 71 419Q80 389 93 389Q105 389 110 403Q115 412 119 446Q139 463 139 480M271 520Q247 520 221 496Q195 472 195 445Q195 428 219 428Q231 428 247 431Q259 380 274 380Q289 380 307 432Q317 425 328 425Q347 425 347 445Q347 459 322 465Q338 471 338 482Q338 495 323 495Q316 495 304 489Q291 520 271 520M163 100Q174 100 183 116Q193 133 193 159Q193 197 167 197Q155 197 143 185Q130 173 130 160Q130 147 145 142Q147 100 163 100Z"  horiz-adv-x="343" vert-adv-y="1000"  />

      
      <glyph glyph-name="uni7a" unicode="&#x7a;" d="M42 460L42 465Q42 495 75 496Q92 541 140 541Q174 541 182 509Q194 515 206 515Q236 515 236 488Q236 483 233 475Q245 471 245 459L256 459Q220 349 171 130Q188 166 223 166Q234 166 240 152Q247 156 253 156Q268 156 268 135L268 128L282 139L246 7Q197-6 142-6Q124-6 82-3L65-2L47-1L28 0L9 0L108 336L21 334L37 460L42 460M140 531Q97 531 81 488Q51 485 51 465Q51 436 93 436Q106 436 121 439Q124 394 148 394Q169 394 181 440Q201 435 208 435Q235 435 235 455Q235 465 220 474Q225 482 225 486Q225 504 205 504Q196 504 178 496Q166 531 140 531M218 53Q228 53 243 94Q262 98 262 121Q262 145 246 145Q242 145 234 142Q230 157 220 157Q205 157 191 145Q177 133 177 117Q177 87 202 86Q208 53 218 53Z"  horiz-adv-x="292" vert-adv-y="1000"  />

      
      <glyph glyph-name="uni7b" unicode="&#x7b;" d="M431 619L419 620L408 620Q355 620 339 598Q324 579 324 522L324 405Q324 335 305 306Q282 272 223 259Q282 246 305 212Q324 184 324 114L324-4Q324-60 339-80Q356-101 408-101L419-100L431-100L431-202L412-202L394-203Q301-203 257-179Q224-160 214-124Q206-97 206-37L206 86Q206 153 182 181Q157 209 97 209L87 209L77 208L77 310L87 310L97 309Q156 309 182 338Q206 367 206 433L206 555Q206 614 214 643Q224 678 257 698Q301 722 394 722L412 722L431 721L431 619Z"  horiz-adv-x="500" vert-adv-y="1000"  />

      
      <glyph glyph-name="uni7c" unicode="&#x7c;" d="M301 764L301-236L200-236L200 764L301 764Z"  horiz-adv-x="500" vert-adv-y="1000"  />

      
      <glyph glyph-name="uni7d" unicode="&#x7d;" d="M103 721Q202 721 244 697Q277 678 287 643Q295 613 295 555L295 432Q295 366 320 338Q344 309 404 309L414 310L424 310L424 208L406 208Q345 208 320 180Q295 154 295 86L295-37Q295-96 287-125Q277-160 244-179Q201-203 107-203L89-202L70-202L70-100L82-100L93-101Q146-101 162-80Q177-60 177-4L177 113Q177 183 196 212Q217 246 278 259Q219 272 196 306Q177 335 177 405L177 523Q177 580 162 599Q146 620 93 620L82 620L70 619L70 721L103 721Z"  horiz-adv-x="500" vert-adv-y="1000"  />

      
      <glyph glyph-name="uni7e" unicode="&#x7e;" d="M747 284Q649 217 562 217Q517 217 472 232L446 241L422 249Q383 263 373 265Q319 281 275 281Q196 281 87 204L87 312Q190 382 276 382Q314 382 354 373Q376 367 388 363L420 353L456 341L491 329Q532 317 564 317Q644 317 747 392L747 284Z"  horiz-adv-x="833" vert-adv-y="1000"  />

      
      <glyph glyph-name="unia1" unicode="&#xa1;" d="M20 516Q20 553 57 553Q66 553 69 552Q83 596 114 596Q126 596 135 575L140 575Q167 575 167 545Q167 531 155 528Q159 273 159 79L159-5L25 1Q38 46 44 491Q20 496 20 516M89 714Q63 731 56 731Q49 731 43 725Q37 718 37 710Q37 693 49 676Q59 660 68 660Q70 660 86 691Q89 674 96 665Q102 656 107 656Q113 656 116 699Q122 685 129 678Q136 671 139 671Q146 671 146 691L146 698Q159 707 159 714Q159 719 131 723Q129 749 114 749Q88 749 88 728L88 727L89 724L89 714M114 756Q137 756 141 728Q167 723 167 712Q167 699 152 693Q153 679 153 632L153 607L35 606Q35 618 34 630L34 647L33 654L33 667Q33 671 34 675L34 692Q30 704 30 712Q30 739 55 739Q68 739 82 729Q82 756 114 756M73 543L67 543Q28 543 28 520Q28 501 50 500Q50 459 73 459Q80 459 102 510Q119 498 126 498Q134 498 140 507Q147 515 147 530L147 533Q155 544 155 548Q155 564 139 564L135 564L131 563Q122 584 108 584Q91 584 80 542L73 543Z"  horiz-adv-x="199" vert-adv-y="1000"  />

      
      <glyph glyph-name="unia2" unicode="&#xa2;" d="M108 581Q101 578 101 575Q101 566 113 566L116 566L120 567Q128 569 133 570L133 562Q133 524 155 524Q165 524 165 553Q173 550 179 550Q195 550 196 571Q207 568 214 568Q234 568 240 604Q248 577 262 577Q271 577 278 584Q281 558 297 558Q314 558 314 577Q314 599 290 606Q293 615 293 623Q293 643 276 643Q266 643 256 635Q246 656 236 656Q220 656 217 625Q181 642 173 642Q151 642 151 620Q151 618 153 608Q143 614 136 614Q123 614 123 602Q123 595 129 586Q113 584 108 581M298 465Q282 480 261 480Q225 480 204 448Q183 414 183 355Q183 289 216 269Q209 276 209 286Q209 314 257 314Q264 314 285 311Q291 320 305 320Q348 320 348 265Q348 243 340 222Q333 203 323 203L322 203L326 195Q293 152 244 128L250 25L178 21L174 120Q58 138 58 329Q58 475 128 560L121 559L114 557L110 556L107 556Q91 556 91 572Q91 589 116 592Q115 595 115 603Q115 623 138 623L140 623L140 627Q140 646 172 651L172 730L237 724L237 664Q251 663 262 646Q273 652 282 652Q303 652 303 618L303 609Q324 599 324 580Q324 567 317 553L298 465M245 215Q258 215 276 249Q280 221 290 221Q298 221 307 236Q315 212 323 212Q324 212 327 216Q331 222 333 227Q340 242 340 263Q340 283 329 297Q318 311 305 311Q296 311 290 300Q272 306 257 306Q238 306 228 299Q217 291 217 284Q217 275 228 267Q234 215 245 215Z"  horiz-adv-x="382" vert-adv-y="1000"  />

      
      <glyph glyph-name="unia3" unicode="&#xa3;" d="M243 481Q240 540 209 540Q191 540 177 507Q162 471 162 413Q162 412 164 372Q179 392 194 392Q209 392 217 363Q230 370 239 370Q259 370 259 331L259 323L258 315L287 307Q281 283 275 261Q270 244 265 230Q232 244 186 247L188 232L188 218Q188 179 168 141L170 141Q172 141 176 142Q184 143 195 145Q207 175 225 175Q232 175 239 172Q237 176 237 182Q237 196 253 208Q270 220 292 220Q332 220 332 188Q332 180 328 173L337 174L346 174Q387 174 387 137Q387 110 356 73Q338 39 323-11Q256 29 177 29Q112 29 56 7Q28 47 25 100Q47 116 66 120Q81 144 81 174Q81 191 73 228Q53 220 23 205Q19 214 19 226L20 230L20 233L21 238L22 248L22 258Q22 276 17 294L56 305Q44 377 44 421Q44 581 110 666Q104 683 104 695Q104 736 148 748Q147 751 147 758Q147 795 199 795Q254 795 257 751Q269 754 280 754Q320 754 320 710Q320 685 310 672Q347 620 358 539Q357 539 328 525Q293 507 243 481M114 692Q114 671 124 654Q133 637 141 637Q158 637 177 686Q183 652 196 652Q206 652 213 683Q237 631 248 631Q261 631 261 658L261 662Q269 647 276 647Q286 647 296 666Q309 686 309 708Q309 743 275 743Q269 743 247 738L248 743L248 748Q248 784 201 784Q156 784 156 756L158 738Q114 729 114 692M244 96Q249 96 257 101L257 97Q257 68 272 68Q282 68 311 106Q314 68 333 68Q342 68 358 92Q375 118 375 138Q375 154 361 160Q352 163 316 165Q321 178 321 183Q321 208 292 208Q247 208 247 174Q247 172 249 162L244 163L239 164L231 164Q197 164 197 114Q197 103 200 103Q204 103 228 118Q232 96 244 96M193 384Q184 384 173 370Q161 355 161 335Q161 321 168 311Q175 301 182 301Q198 301 208 325Q213 286 226 286Q233 286 241 300Q250 315 250 334Q250 360 235 360Q229 360 211 352Q199 384 193 384Z"  horiz-adv-x="382" vert-adv-y="1000"  />

      
      <glyph glyph-name="uni2044" unicode="&#x2044;" d="M292 680Q310 680 310 696Q310 709 295 712L296 717L296 722Q297 726 297 727Q297 755 255 755Q238 755 234 748Q229 740 228 717Q217 721 205 721Q169 721 169 629Q169 608 175 608Q189 608 212 643Q219 636 227 636Q240 636 253 664Q265 640 274 640Q289 640 289 671L289 680L292 680M-167 12Q70 402 186 597Q183 596 176 596Q158 596 158 632Q158 731 204 731Q208 731 220 726Q223 764 255 764Q307 764 307 729Q307 727 305 717L333 713Q124 343-97-17L-167 12Z"  horiz-adv-x="167" vert-adv-y="1000"  />

      
      <glyph glyph-name="unia5" unicode="&#xa5;" d="M248 3Q223 0 185-3L153-6L119-9Q125 93 127 244Q81 241 44 234L29 307Q71 309 110 318Q69 458-24 705Q-44 713-44 732Q-44 785 27 785Q50 785 65 764Q73 784 87 784Q104 784 115 767Q127 751 127 725Q127 715 124 701L129 680L134 657Q142 630 146 606Q161 536 173 484Q194 496 206 496Q216 496 222 487L228 521L235 555Q237 564 240 582L243 597L246 613L251 639L255 663Q257 673 259 686L261 695L263 703Q244 715 244 740Q244 764 257 780Q269 796 286 796Q299 796 308 781Q324 797 338 797Q349 797 361 779Q372 788 382 788Q396 788 405 777Q415 767 415 750Q415 729 395 717Q312 441 273 320Q315 318 318 318L333 319L348 319L341 240Q316 247 281 247Q259 247 252 246L250 239L248 3M20 774Q-33 774-33 735Q-33 717-11 713Q-9 699 2 699L7 699Q2 684 2 679Q2 655 23 655Q35 655 46 669Q57 658 66 658Q80 658 90 668Q101 679 101 692L101 694Q118 706 118 723Q118 743 109 758Q100 772 89 772Q72 772 70 740Q57 774 20 774M288 783Q276 783 267 771Q258 758 258 739Q258 714 279 706L279 702Q279 669 306 669L310 670L314 670Q306 665 306 657Q306 643 323 643Q338 643 351 667Q355 665 360 665Q382 665 382 714L382 725Q401 729 401 746Q401 777 376 777Q369 777 355 769Q346 786 337 786Q321 786 306 762Q299 783 288 783M193 393Q211 393 212 424Q230 432 230 450Q230 483 206 483Q189 483 176 473Q162 462 162 449Q162 435 178 428Q184 393 193 393Z"  horiz-adv-x="382" vert-adv-y="1000"  />

      
      <glyph glyph-name="uni0192" unicode="&#x0192;" d="M312 579Q290 579 276 549Q268 531 253 455Q266 466 278 466Q297 466 297 449Q305 443 309 443L312 443Q323 443 323 427L323 424L322 420L321 412Q321 409 324 401Q327 394 327 391Q327 373 305 373L301 373L297 374Q290 334 289 308L270 309L252 310L239 310L227 309Q187 70 155-7Q115-109 34-109Q-2-109-58-87Q-43-44-39-25Q-55-3-55 17Q-55 46-33 46Q-27 46-23 43Q-19 62 7 62Q30 62 30 35Q35 40 39 40Q47 40 50 29Q78 133 105 309L62 310L68 372Q50 389 50 397Q50 401 53 408Q56 416 56 419Q56 425 55 429L54 433L54 436Q54 449 63 452L67 454L73 455Q79 456 84 460Q87 481 108 481Q123 481 137 467Q152 590 189 645L189 650Q189 658 194 673Q189 686 189 692Q189 728 232 728Q242 728 253 724Q277 760 304 760Q328 760 347 742Q366 724 366 698L366 695L369 694L372 693Q375 692 381 688Q380 607 354 547Q334 579 312 579M356 698Q356 720 340 735Q325 750 303 750Q282 750 256 714Q239 719 231 719Q199 719 199 688Q199 679 202 670Q197 657 197 652Q197 634 211 634Q221 634 242 659Q242 613 266 613Q281 613 299 657Q305 629 320 629Q340 629 342 673Q356 676 356 698M141 432Q141 471 108 471Q92 471 92 454Q85 447 79 447L75 447Q65 447 65 436L66 429L67 421Q67 419 64 411Q60 406 60 401Q60 395 65 387Q70 381 75 381Q82 381 89 390Q97 400 102 415Q116 398 126 398Q137 398 137 413Q137 419 136 421Q141 426 141 432M-32 35Q-45 35-45 12Q-45-21-24-21Q-9-21 7-3Q13-17 25-17Q44-17 44 11Q44 27 37 27Q32 27 19 19Q19 50 2 50Q-15 50-21 31Q-24 33-28 34Q-30 35-32 35M252 409L251 406Q251 393 261 393Q270 393 282 408Q286 395 294 386Q300 379 305 379Q319 379 319 395Q319 398 316 404Q313 410 313 414Q313 415 315 421L316 428Q316 433 307 434L303 435L299 436Q294 438 291 442Q289 456 277 456Q249 456 249 427Q249 418 252 412L252 409Z"  horiz-adv-x="382" vert-adv-y="1000"  />

      
      <glyph glyph-name="unia7" unicode="&#xa7;" d="M279 692Q279 642 266 603Q235 618 214 618Q179 618 179 591Q179 568 226 512L237 500L247 488Q252 483 258 475L262 470L266 465Q289 437 298 423Q328 378 328 334Q328 260 264 223L219 262L216 257Q287 180 287 101Q287 41 256 6Q224-29 174-29Q106-29 52 39Q93 71 111 111L120 101Q127 120 144 120Q156 120 169 108Q170 112 170 124Q170 166 116 221L98 239L82 256Q64 276 54 291Q27 332 27 378Q27 457 87 488L137 453L143 457Q73 521 73 593Q73 623 84 647Q86 700 111 736Q134 768 161 768Q174 768 194 754Q208 781 235 781Q245 781 251 768L258 769L263 770Q285 770 285 746Q285 736 278 719Q279 713 279 692M121 372Q121 357 144 331Q155 358 176 358Q197 358 213 312Q231 327 231 346Q231 368 171 419Q121 405 121 372M162 756Q140 756 119 728Q96 696 96 656Q96 633 116 633Q151 633 166 694Q169 680 177 680Q191 680 206 711Q220 699 230 699Q247 699 260 712Q273 725 273 743Q273 759 259 759Q253 759 245 756Q239 768 232 768Q215 768 194 733Q179 756 162 756M186 264Q206 264 206 292Q206 312 196 328Q185 345 173 345Q149 345 149 303Q149 293 154 283Q159 274 163 274Q168 274 172 284Q178 264 186 264M157 71Q168 71 168 88Q168 110 144 110Q137 110 131 102Q125 95 125 84Q125 69 136 69Q141 69 146 77Q152 71 157 71Z"  horiz-adv-x="345" vert-adv-y="1000"  />

      
      <glyph glyph-name="unia4" unicode="&#xa4;" d="M254 203Q239 203 239 189Q239 178 255 172Q230 165 230 153Q230 147 235 140Q240 134 244 134Q250 134 268 153Q271 125 282 125Q291 125 304 134Q319 142 335 160L339 160L343 159Q360 159 360 178Q360 198 346 198Q345 198 330 193Q311 224 301 224Q289 224 273 196Q267 199 261 201Q257 203 254 203M228 752Q203 752 172 724Q139 693 139 662Q139 650 151 639Q163 630 179 630Q209 630 231 696Q248 663 261 663Q286 663 291 701Q295 698 304 689L309 684L314 679Q324 669 335 669Q347 669 357 682Q367 692 367 702Q367 730 320 730Q323 742 323 751Q323 776 299 776Q273 776 256 725Q241 752 228 752M334 535Q317 549 300 549Q273 549 248 521Q218 488 208 442L237 443L266 443Q308 443 319 442L304 381L295 381Q289 381 284 382L272 382L259 383L241 384L224 384Q205 384 195 385L194 375L193 364L193 352L192 339Q225 338 257 337Q268 337 281 336L291 335L300 335L285 277Q261 279 235 280L214 281L196 282Q204 233 231 191Q234 217 252 217Q258 217 269 209Q276 237 297 237Q321 237 336 210L343 211Q346 212 347 212Q372 212 372 177Q372 157 353 150Q352 138 352 116L352 93Q352 70 355 35Q316-4 253-4Q180-4 127 70Q72 147 65 277L49 275L34 273Q17 271 10 270L21 328L30 329L40 330Q53 331 63 332L64 342L65 354Q66 368 68 380Q42 378 12 373L23 431Q36 433 52 434L65 435L77 436Q96 539 154 622Q128 636 128 652Q128 690 155 720Q175 743 198 756Q220 767 231 767Q242 767 252 748Q264 788 298 788Q340 788 340 750Q340 741 339 738Q380 733 380 703Q380 692 361 673Q342 609 334 535Z"  horiz-adv-x="382" vert-adv-y="1000"  />

      
      <glyph glyph-name="uni27" unicode="&#x27;" d="M49 712L49 704Q49 685 58 685Q75 685 84 711Q86 691 97 691L100 692L103 692L103 689Q103 672 114 672Q121 672 125 700Q138 710 138 727Q138 752 113 752L108 752L102 751Q106 758 106 768Q106 787 86 787Q54 787 54 762Q54 755 55 753Q33 746 33 737Q33 725 50 722L49 712M21 739Q21 751 44 759L44 761Q44 800 85 800Q117 800 117 776Q117 769 113 762L116 762Q153 762 153 728Q153 709 139 698Q130 613 130 514L40 520L40 574Q40 595 38 715Q21 726 21 739Z"  horiz-adv-x="172" vert-adv-y="1000"  />

      
      <glyph glyph-name="uni201C" unicode="&#x201C;" d="M176 719Q176 706 184 688Q192 674 198 674Q216 674 219 704Q241 664 242 664Q253 664 261 693Q264 679 271 679Q280 679 280 697Q280 725 264 745Q247 765 229 765Q202 765 202 743Q202 737 203 735Q176 731 176 719M165 722Q165 742 195 743L194 747L194 750Q194 775 228 775Q253 775 271 753Q290 731 290 698Q290 677 276 663Q286 598 313 538Q277 519 236 512Q188 596 169 704Q165 712 165 722M18 724Q18 742 36 758Q56 776 75 776Q104 776 104 746L104 739Q112 743 121 743Q147 743 147 709Q147 681 129 672Q142 601 169 538Q133 519 92 512Q38 606 24 711Q18 719 18 724M46 673Q54 661 59 661Q73 661 74 692Q94 651 102 651Q110 651 110 672Q110 673 108 691Q113 677 120 677Q126 677 132 685Q137 695 137 706Q137 733 117 733Q108 733 97 729Q96 766 77 766Q61 766 45 752Q30 739 30 725Q30 717 35 709Q38 688 46 673Z"  horiz-adv-x="333" vert-adv-y="1000"  />

      
      <glyph glyph-name="uniab" unicode="&#xab;" d="M247 398Q247 431 292 437Q293 465 312 465Q330 465 333 441Q342 451 348 451Q355 451 362 444Q369 437 369 427L368 422L366 416L384 407Q365 371 345 338L331 313L317 289L312 280L307 272L303 265L300 259Q294 249 294 248Q345 188 383 88Q349 64 305 55Q252 170 183 248Q223 308 257 362Q247 386 247 398M115 380Q115 359 129 359Q140 359 144 387L151 387Q166 387 170 403L176 401L180 400L182 400Q200 400 200 421Q200 438 188 438Q176 438 162 429L162 434Q162 450 149 450Q132 450 127 423L122 424L118 426L114 427L110 427Q95 427 95 406Q95 390 116 390Q115 387 115 380M220 407Q206 382 184 344L176 329L168 315Q159 300 153 289L148 280L144 273Q139 263 136 259Q130 249 130 248Q181 188 219 88Q185 64 141 55Q88 170 19 248L47 290Q65 316 105 382Q85 385 85 409Q85 437 106 437Q114 437 121 433Q123 446 133 453Q144 461 154 461Q162 461 167 444Q175 448 184 448Q210 448 210 424Q210 422 209 421L208 417L207 414L220 407M299 430Q259 417 259 394Q259 373 266 359Q273 346 280 346Q288 346 297 369L302 368L306 368Q318 368 326 397L331 396L335 395Q359 395 359 425Q359 440 351 440Q341 440 330 425Q321 455 310 455Q298 455 298 437L299 434L299 430Z"  horiz-adv-x="403" vert-adv-y="1000"  />

      
      <glyph glyph-name="uni2039" unicode="&#x2039;" d="M220 407Q206 382 184 344L176 329L168 315Q159 300 153 289L148 280L144 273Q139 263 136 259Q130 249 130 248Q181 188 219 88Q185 64 141 55Q88 170 19 248L47 290Q65 316 105 382Q85 385 85 409Q85 437 106 437Q114 437 121 433Q123 446 133 453Q144 461 154 461Q162 461 167 444Q175 448 184 448Q210 448 210 424Q210 422 209 421L208 417L207 414L220 407M115 380Q115 359 129 359Q140 359 144 387L151 387Q166 387 170 403L176 401L180 400L182 400Q200 400 200 421Q200 438 188 438Q176 438 162 429L162 434Q162 450 149 450Q132 450 127 423L122 424L118 426L114 427L110 427Q95 427 95 406Q95 390 116 390Q115 387 115 380Z"  horiz-adv-x="238" vert-adv-y="1000"  />

      
      <glyph glyph-name="uni203A" unicode="&#x203A;" d="M218 248Q216 246 215 244Q211 238 208 234Q204 228 197 217L191 207L184 197Q167 172 142 131L131 112L119 94Q104 70 95 55Q46 73 17 88Q25 103 35 121L44 136L53 151Q74 188 84 207Q88 214 93 223L101 237L103 241L105 245L107 248Q86 272 48 337Q41 330 35 330Q11 330 11 372Q11 428 40 428L42 428Q46 465 77 465Q99 465 106 447Q124 446 124 427Q124 417 115 403Q152 324 218 248M48 419Q21 419 21 368Q21 341 34 341Q56 341 56 380L56 386Q56 394 55 398Q61 395 64 395Q66 395 70 396Q75 397 81 399Q83 381 93 381Q109 381 109 403L109 410Q115 419 115 423Q115 437 104 437Q99 437 98 436Q94 455 77 455Q50 455 50 419L48 419Z"  horiz-adv-x="238" vert-adv-y="1000"  />

      
      </font>
</defs>
</svg>
